<svg width="202" height="75" viewBox="0 0 202 75" fill="none" xmlns="http://www.w3.org/2000/svg">
<mask id="path-1-outside-1_1630_89832" maskUnits="userSpaceOnUse" x="-1" y="11" width="204" height="33" fill="black">
<rect fill="white" x="-1" y="11" width="204" height="33"/>
<path d="M8.55372 36V14.1915H5.76139C4.44181 14.1915 3.40499 14.5097 2.65095 15.1459C1.92046 15.7821 1.55522 16.8543 1.55522 18.3624H0.636227V15.4993C0.636227 15.0281 0.718701 14.5803 0.883649 14.1562C1.0486 13.7085 1.34315 13.355 1.7673 13.0958C2.21501 12.813 2.83946 12.6717 3.64063 12.6717H20.1825V14.1915H12.5478V36H8.55372ZM27.2517 36.3535C25.5551 36.3535 24.0942 35.9764 22.8688 35.2224C21.6435 34.4448 20.701 33.3962 20.0412 32.0766C19.4049 30.757 19.0868 29.296 19.0868 27.6937C19.0868 26.0678 19.4049 24.6068 20.0412 23.3108C20.701 21.9912 21.6435 20.9544 22.8688 20.2004C24.0942 19.4227 25.5551 19.0339 27.2517 19.0339C28.9719 19.0339 30.4447 19.4227 31.67 20.2004C32.8953 20.9544 33.8261 21.9912 34.4623 23.3108C35.1221 24.6068 35.452 26.0678 35.452 27.6937C35.452 29.296 35.1221 30.757 34.4623 32.0766C33.8261 33.3962 32.8953 34.4448 31.67 35.2224C30.4447 35.9764 28.9719 36.3535 27.2517 36.3535ZM27.2517 34.8336C28.1236 34.8336 28.8541 34.5273 29.4432 33.9146C30.0323 33.2784 30.48 32.4183 30.7863 31.3343C31.1162 30.2504 31.2812 29.0368 31.2812 27.6937C31.2812 26.327 31.1162 25.1134 30.7863 24.0531C30.48 22.9691 30.0323 22.1208 29.4432 21.5082C28.8541 20.8719 28.1236 20.5538 27.2517 20.5538C26.427 20.5538 25.7083 20.8719 25.0956 21.5082C24.5065 22.1208 24.047 22.9691 23.7171 24.0531C23.4108 25.1134 23.2576 26.327 23.2576 27.6937C23.2576 29.0368 23.4108 30.2504 23.7171 31.3343C24.047 32.4183 24.5065 33.2784 25.0956 33.9146C25.7083 34.5273 26.427 34.8336 27.2517 34.8336ZM45.3124 36.3535C43.7572 36.3535 42.4612 35.9764 41.4244 35.2224C40.3875 34.4448 39.6099 33.3962 39.0915 32.0766C38.5731 30.757 38.3139 29.296 38.3139 27.6937C38.3139 26.0678 38.5731 24.6068 39.0915 23.3108C39.6335 21.9912 40.4347 20.9544 41.4951 20.2004C42.579 19.4227 43.9339 19.0339 45.5598 19.0339C46.4317 19.0339 47.1975 19.1518 47.8573 19.3874C48.5171 19.5995 49.0827 19.8351 49.5539 20.0943V17.1253C49.5539 16.0649 49.4008 15.2166 49.0944 14.5803C48.8117 13.9206 48.1401 13.5907 47.0797 13.5907H46.5849V12.6717H50.4022C51.227 12.6717 51.8632 12.8013 52.3109 13.0605C52.7822 13.3197 53.1121 13.7674 53.3006 14.4036C53.4891 15.0398 53.5834 15.9471 53.5834 17.1253V36H51.0738L49.8367 34.4094H49.66C49.3301 34.8807 48.8117 35.3284 48.1048 35.7526C47.4214 36.1532 46.4906 36.3535 45.3124 36.3535ZM46.1607 34.8336C46.797 34.8336 47.3271 34.7158 47.7513 34.4801C48.199 34.2445 48.5642 33.9499 48.847 33.5965C49.1298 33.243 49.3654 32.9131 49.5539 32.6068V21.6142C49.1298 21.355 48.6467 21.1193 48.1048 20.9073C47.5628 20.6716 46.9972 20.5538 46.4081 20.5538C45.4656 20.5538 44.6998 20.8719 44.1107 21.5082C43.5451 22.1208 43.1328 22.9691 42.8735 24.0531C42.6379 25.1134 42.5201 26.327 42.5201 27.6937C42.5201 29.0368 42.6379 30.2504 42.8735 31.3343C43.1092 32.4183 43.498 33.2784 44.04 33.9146C44.5819 34.5273 45.2889 34.8336 46.1607 34.8336ZM62.7057 36.3535C61.9045 36.3535 61.1622 36.2474 60.4789 36.0353C59.8191 35.8468 59.23 35.5523 58.7116 35.1517C58.1932 34.7511 57.7808 34.2445 57.4745 33.6318C57.1917 33.0192 57.0503 32.3122 57.0503 31.5111C57.0503 30.3093 57.3802 29.3314 58.04 28.5773C58.6998 27.8233 59.713 27.2695 61.0798 26.9161C62.47 26.5391 64.2373 26.3506 66.3817 26.3506H67.1239C67.1239 24.8425 66.9825 23.676 66.6998 22.8513C66.417 22.003 66.0046 21.4139 65.4627 21.084C64.9442 20.7305 64.3316 20.5538 63.6247 20.5538C62.7528 20.5538 61.987 20.7659 61.3272 21.19C60.6674 21.5906 60.2079 22.4154 59.9487 23.6643H58.146C58.146 23.0516 58.1814 22.4507 58.2521 21.8616C58.3463 21.2725 58.6055 20.7423 59.0297 20.271C59.4538 19.7998 60.1608 19.4817 61.1504 19.3167C62.1637 19.1282 63.2241 19.0339 64.3316 19.0339C65.3448 19.0339 66.2638 19.1635 67.0886 19.4227C67.9369 19.6819 68.6556 20.0943 69.2447 20.6599C69.8573 21.2254 70.3286 21.9912 70.6585 22.9573C70.9884 23.8999 71.1534 25.0663 71.1534 26.4566V36H68.6438L67.4067 34.4094H67.23C66.9001 34.8807 66.3581 35.3284 65.604 35.7526C64.85 36.1532 63.8839 36.3535 62.7057 36.3535ZM63.9781 34.6569C64.8029 34.6569 65.4627 34.4212 65.9575 33.9499C66.4759 33.4551 66.8647 32.9485 67.1239 32.4301V27.8704H66.3817C64.6615 27.8704 63.3772 28.1885 62.5289 28.8248C61.6806 29.4374 61.2565 30.3329 61.2565 31.5111C61.2565 32.5714 61.5157 33.3608 62.0341 33.8792C62.5525 34.3976 63.2005 34.6569 63.9781 34.6569ZM76.2606 43.0692V41.9028C77.4388 41.9028 78.4285 41.6671 79.2296 41.1959C80.0308 40.7246 80.7024 39.782 81.2444 38.3682L81.9513 36.4242L75.8718 22.5685C75.5183 21.6967 75.0352 21.0369 74.4226 20.5892C73.8335 20.1179 73.1383 19.8351 72.3372 19.7409V19.0339H75.4123C76.4727 19.0339 77.3799 19.2931 78.1339 19.8115C78.9115 20.3064 79.4888 20.9897 79.8659 21.8616L83.9306 31.1223L88.2782 19.3874H90.1162L83.0823 38.2975C82.6111 39.5699 82.1044 40.5478 81.5625 41.2312C81.0205 41.9381 80.4196 42.4212 79.7598 42.6804C79.1 42.9396 78.3578 43.0692 77.533 43.0692H76.2606ZM109.194 36.7069C107.238 36.7069 105.659 36.4595 104.458 35.9647C103.256 35.4462 102.372 34.7747 101.807 33.9499C101.265 33.1016 100.994 32.1709 100.994 31.1576C100.994 30.1208 101.241 29.2136 101.736 28.436C102.231 27.6348 102.891 26.9161 103.715 26.2799C104.54 25.6436 105.424 25.0428 106.366 24.4772C106.083 24.218 105.73 23.8646 105.306 23.4168C104.882 22.9691 104.458 22.4389 104.033 21.8263C103.609 21.19 103.256 20.5067 102.973 19.7762C102.69 19.0457 102.549 18.2799 102.549 17.4787C102.549 15.7585 103.15 14.4154 104.351 13.4493C105.577 12.4596 107.238 11.9647 109.335 11.9647C111.362 11.9647 112.905 12.436 113.966 13.3786C115.05 14.2976 115.592 15.4758 115.592 16.9132C115.592 17.9264 115.344 18.8572 114.849 19.7055C114.354 20.5302 113.695 21.2961 112.87 22.003C112.069 22.6864 111.197 23.3461 110.254 23.9824L117.005 31.3343C117.453 30.8395 117.865 30.3329 118.242 29.8145C118.619 29.296 118.949 28.8366 119.232 28.436C119.397 28.1768 119.55 27.9411 119.692 27.729C119.833 27.4934 119.963 27.2578 120.08 27.0221L121.141 27.729C121.047 27.9647 120.929 28.2121 120.787 28.4713C120.67 28.7305 120.528 28.9897 120.363 29.2489C120.104 29.6966 119.774 30.2033 119.374 30.7688C118.997 31.3108 118.549 31.8645 118.03 32.4301L121.318 36H116.899L115.521 34.5862C115.309 34.7511 114.908 35.0103 114.319 35.3638C113.73 35.6937 112.999 36 112.128 36.2828C111.256 36.5655 110.278 36.7069 109.194 36.7069ZM109.653 35.3638C110.69 35.3638 111.621 35.187 112.446 34.8336C113.294 34.4566 114.013 34.0206 114.602 33.5258L107.639 25.9971C106.932 26.6098 106.331 27.3167 105.836 28.1179C105.341 28.8955 105.094 29.7909 105.094 30.8041C105.094 32.2415 105.471 33.3608 106.225 34.162C106.979 34.9632 108.122 35.3638 109.653 35.3638ZM109.017 22.6039C109.818 21.897 110.49 21.1193 111.032 20.271C111.574 19.4227 111.845 18.4213 111.845 17.2666C111.845 16.277 111.715 15.4993 111.456 14.9338C111.197 14.3447 110.867 13.9323 110.466 13.6967C110.089 13.4375 109.712 13.3079 109.335 13.3079C108.84 13.3079 108.381 13.4375 107.957 13.6967C107.556 13.9559 107.238 14.3918 107.002 15.0045C106.767 15.5936 106.649 16.4183 106.649 17.4787C106.649 18.1385 106.743 18.7512 106.932 19.3167C107.12 19.8822 107.344 20.3889 107.603 20.8366C107.863 21.2843 108.122 21.6613 108.381 21.9677C108.64 22.2504 108.852 22.4625 109.017 22.6039ZM139.306 36V14.1915H136.514C135.194 14.1915 134.157 14.5097 133.403 15.1459C132.673 15.7821 132.308 16.8543 132.308 18.3624H131.389V15.4993C131.389 15.0281 131.471 14.5803 131.636 14.1562C131.801 13.7085 132.096 13.355 132.52 13.0958C132.967 12.813 133.592 12.6717 134.393 12.6717H150.935V14.1915H143.3V36H139.306ZM158.004 36.3535C156.308 36.3535 154.847 35.9764 153.621 35.2224C152.396 34.4448 151.453 33.3962 150.794 32.0766C150.157 30.757 149.839 29.296 149.839 27.6937C149.839 26.0678 150.157 24.6068 150.794 23.3108C151.453 21.9912 152.396 20.9544 153.621 20.2004C154.847 19.4227 156.308 19.0339 158.004 19.0339C159.724 19.0339 161.197 19.4227 162.422 20.2004C163.648 20.9544 164.579 21.9912 165.215 23.3108C165.875 24.6068 166.204 26.0678 166.204 27.6937C166.204 29.296 165.875 30.757 165.215 32.0766C164.579 33.3962 163.648 34.4448 162.422 35.2224C161.197 35.9764 159.724 36.3535 158.004 36.3535ZM158.004 34.8336C158.876 34.8336 159.607 34.5273 160.196 33.9146C160.785 33.2784 161.232 32.4183 161.539 31.3343C161.869 30.2504 162.034 29.0368 162.034 27.6937C162.034 26.327 161.869 25.1134 161.539 24.0531C161.232 22.9691 160.785 22.1208 160.196 21.5082C159.607 20.8719 158.876 20.5538 158.004 20.5538C157.179 20.5538 156.461 20.8719 155.848 21.5082C155.259 22.1208 154.799 22.9691 154.47 24.0531C154.163 25.1134 154.01 26.327 154.01 27.6937C154.01 29.0368 154.163 30.2504 154.47 31.3343C154.799 32.4183 155.259 33.2784 155.848 33.9146C156.461 34.5273 157.179 34.8336 158.004 34.8336ZM176.454 36.3535C175.181 36.3535 174.062 36.1532 173.096 35.7526C172.153 35.3284 171.423 34.6451 170.904 33.7025C170.386 32.76 170.127 31.4993 170.127 29.9205V23.841C170.127 22.7806 169.974 21.9323 169.667 21.2961C169.384 20.6363 168.713 20.3064 167.653 20.3064H167.299V19.3874H170.975C171.8 19.3874 172.436 19.517 172.884 19.7762C173.355 20.0354 173.685 20.4831 173.873 21.1193C174.062 21.7556 174.156 22.6628 174.156 23.841V29.9205C174.156 31.1223 174.298 32.0766 174.58 32.7835C174.887 33.4904 175.287 33.9971 175.782 34.3034C176.301 34.6097 176.878 34.7629 177.514 34.7629C178.032 34.7629 178.504 34.6569 178.928 34.4448C179.352 34.2091 179.729 33.9264 180.059 33.5965C180.389 33.2666 180.648 32.9485 180.837 32.6421V19.3874H184.866V36H182.356L181.119 34.4801H180.943C180.495 34.9514 179.894 35.3873 179.14 35.7879C178.386 36.1649 177.49 36.3535 176.454 36.3535ZM189.982 36V23.841C189.982 22.7806 189.84 21.9323 189.558 21.2961C189.275 20.6363 188.603 20.3064 187.543 20.3064H187.189V19.3874H190.406C191.231 19.3874 191.867 19.5052 192.315 19.7409C192.786 19.9529 193.139 20.3064 193.375 20.8012C193.799 20.4242 194.388 20.0354 195.142 19.6348C195.896 19.2342 196.792 19.0339 197.829 19.0339C198.276 19.0339 198.7 19.0928 199.101 19.2107C199.525 19.3049 199.879 19.4581 200.161 19.6702C200.515 19.9058 200.786 20.2004 200.974 20.5538C201.163 20.8837 201.304 21.1193 201.399 21.2607L199.737 22.4978C199.502 22.1679 199.16 21.8852 198.712 21.6495C198.265 21.3903 197.746 21.2607 197.157 21.2607C196.427 21.2607 195.779 21.3903 195.213 21.6495C194.671 21.9087 194.235 22.2386 193.905 22.6392C193.929 22.922 193.952 23.193 193.976 23.4522C193.999 23.6878 194.011 23.8881 194.011 24.0531V36H189.982Z"/>
</mask>
<path d="M8.55372 36V14.1915H5.76139C4.44181 14.1915 3.40499 14.5097 2.65095 15.1459C1.92046 15.7821 1.55522 16.8543 1.55522 18.3624H0.636227V15.4993C0.636227 15.0281 0.718701 14.5803 0.883649 14.1562C1.0486 13.7085 1.34315 13.355 1.7673 13.0958C2.21501 12.813 2.83946 12.6717 3.64063 12.6717H20.1825V14.1915H12.5478V36H8.55372ZM27.2517 36.3535C25.5551 36.3535 24.0942 35.9764 22.8688 35.2224C21.6435 34.4448 20.701 33.3962 20.0412 32.0766C19.4049 30.757 19.0868 29.296 19.0868 27.6937C19.0868 26.0678 19.4049 24.6068 20.0412 23.3108C20.701 21.9912 21.6435 20.9544 22.8688 20.2004C24.0942 19.4227 25.5551 19.0339 27.2517 19.0339C28.9719 19.0339 30.4447 19.4227 31.67 20.2004C32.8953 20.9544 33.8261 21.9912 34.4623 23.3108C35.1221 24.6068 35.452 26.0678 35.452 27.6937C35.452 29.296 35.1221 30.757 34.4623 32.0766C33.8261 33.3962 32.8953 34.4448 31.67 35.2224C30.4447 35.9764 28.9719 36.3535 27.2517 36.3535ZM27.2517 34.8336C28.1236 34.8336 28.8541 34.5273 29.4432 33.9146C30.0323 33.2784 30.48 32.4183 30.7863 31.3343C31.1162 30.2504 31.2812 29.0368 31.2812 27.6937C31.2812 26.327 31.1162 25.1134 30.7863 24.0531C30.48 22.9691 30.0323 22.1208 29.4432 21.5082C28.8541 20.8719 28.1236 20.5538 27.2517 20.5538C26.427 20.5538 25.7083 20.8719 25.0956 21.5082C24.5065 22.1208 24.047 22.9691 23.7171 24.0531C23.4108 25.1134 23.2576 26.327 23.2576 27.6937C23.2576 29.0368 23.4108 30.2504 23.7171 31.3343C24.047 32.4183 24.5065 33.2784 25.0956 33.9146C25.7083 34.5273 26.427 34.8336 27.2517 34.8336ZM45.3124 36.3535C43.7572 36.3535 42.4612 35.9764 41.4244 35.2224C40.3875 34.4448 39.6099 33.3962 39.0915 32.0766C38.5731 30.757 38.3139 29.296 38.3139 27.6937C38.3139 26.0678 38.5731 24.6068 39.0915 23.3108C39.6335 21.9912 40.4347 20.9544 41.4951 20.2004C42.579 19.4227 43.9339 19.0339 45.5598 19.0339C46.4317 19.0339 47.1975 19.1518 47.8573 19.3874C48.5171 19.5995 49.0827 19.8351 49.5539 20.0943V17.1253C49.5539 16.0649 49.4008 15.2166 49.0944 14.5803C48.8117 13.9206 48.1401 13.5907 47.0797 13.5907H46.5849V12.6717H50.4022C51.227 12.6717 51.8632 12.8013 52.3109 13.0605C52.7822 13.3197 53.1121 13.7674 53.3006 14.4036C53.4891 15.0398 53.5834 15.9471 53.5834 17.1253V36H51.0738L49.8367 34.4094H49.66C49.3301 34.8807 48.8117 35.3284 48.1048 35.7526C47.4214 36.1532 46.4906 36.3535 45.3124 36.3535ZM46.1607 34.8336C46.797 34.8336 47.3271 34.7158 47.7513 34.4801C48.199 34.2445 48.5642 33.9499 48.847 33.5965C49.1298 33.243 49.3654 32.9131 49.5539 32.6068V21.6142C49.1298 21.355 48.6467 21.1193 48.1048 20.9073C47.5628 20.6716 46.9972 20.5538 46.4081 20.5538C45.4656 20.5538 44.6998 20.8719 44.1107 21.5082C43.5451 22.1208 43.1328 22.9691 42.8735 24.0531C42.6379 25.1134 42.5201 26.327 42.5201 27.6937C42.5201 29.0368 42.6379 30.2504 42.8735 31.3343C43.1092 32.4183 43.498 33.2784 44.04 33.9146C44.5819 34.5273 45.2889 34.8336 46.1607 34.8336ZM62.7057 36.3535C61.9045 36.3535 61.1622 36.2474 60.4789 36.0353C59.8191 35.8468 59.23 35.5523 58.7116 35.1517C58.1932 34.7511 57.7808 34.2445 57.4745 33.6318C57.1917 33.0192 57.0503 32.3122 57.0503 31.5111C57.0503 30.3093 57.3802 29.3314 58.04 28.5773C58.6998 27.8233 59.713 27.2695 61.0798 26.9161C62.47 26.5391 64.2373 26.3506 66.3817 26.3506H67.1239C67.1239 24.8425 66.9825 23.676 66.6998 22.8513C66.417 22.003 66.0046 21.4139 65.4627 21.084C64.9442 20.7305 64.3316 20.5538 63.6247 20.5538C62.7528 20.5538 61.987 20.7659 61.3272 21.19C60.6674 21.5906 60.2079 22.4154 59.9487 23.6643H58.146C58.146 23.0516 58.1814 22.4507 58.2521 21.8616C58.3463 21.2725 58.6055 20.7423 59.0297 20.271C59.4538 19.7998 60.1608 19.4817 61.1504 19.3167C62.1637 19.1282 63.2241 19.0339 64.3316 19.0339C65.3448 19.0339 66.2638 19.1635 67.0886 19.4227C67.9369 19.6819 68.6556 20.0943 69.2447 20.6599C69.8573 21.2254 70.3286 21.9912 70.6585 22.9573C70.9884 23.8999 71.1534 25.0663 71.1534 26.4566V36H68.6438L67.4067 34.4094H67.23C66.9001 34.8807 66.3581 35.3284 65.604 35.7526C64.85 36.1532 63.8839 36.3535 62.7057 36.3535ZM63.9781 34.6569C64.8029 34.6569 65.4627 34.4212 65.9575 33.9499C66.4759 33.4551 66.8647 32.9485 67.1239 32.4301V27.8704H66.3817C64.6615 27.8704 63.3772 28.1885 62.5289 28.8248C61.6806 29.4374 61.2565 30.3329 61.2565 31.5111C61.2565 32.5714 61.5157 33.3608 62.0341 33.8792C62.5525 34.3976 63.2005 34.6569 63.9781 34.6569ZM76.2606 43.0692V41.9028C77.4388 41.9028 78.4285 41.6671 79.2296 41.1959C80.0308 40.7246 80.7024 39.782 81.2444 38.3682L81.9513 36.4242L75.8718 22.5685C75.5183 21.6967 75.0352 21.0369 74.4226 20.5892C73.8335 20.1179 73.1383 19.8351 72.3372 19.7409V19.0339H75.4123C76.4727 19.0339 77.3799 19.2931 78.1339 19.8115C78.9115 20.3064 79.4888 20.9897 79.8659 21.8616L83.9306 31.1223L88.2782 19.3874H90.1162L83.0823 38.2975C82.6111 39.5699 82.1044 40.5478 81.5625 41.2312C81.0205 41.9381 80.4196 42.4212 79.7598 42.6804C79.1 42.9396 78.3578 43.0692 77.533 43.0692H76.2606ZM109.194 36.7069C107.238 36.7069 105.659 36.4595 104.458 35.9647C103.256 35.4462 102.372 34.7747 101.807 33.9499C101.265 33.1016 100.994 32.1709 100.994 31.1576C100.994 30.1208 101.241 29.2136 101.736 28.436C102.231 27.6348 102.891 26.9161 103.715 26.2799C104.54 25.6436 105.424 25.0428 106.366 24.4772C106.083 24.218 105.73 23.8646 105.306 23.4168C104.882 22.9691 104.458 22.4389 104.033 21.8263C103.609 21.19 103.256 20.5067 102.973 19.7762C102.69 19.0457 102.549 18.2799 102.549 17.4787C102.549 15.7585 103.15 14.4154 104.351 13.4493C105.577 12.4596 107.238 11.9647 109.335 11.9647C111.362 11.9647 112.905 12.436 113.966 13.3786C115.05 14.2976 115.592 15.4758 115.592 16.9132C115.592 17.9264 115.344 18.8572 114.849 19.7055C114.354 20.5302 113.695 21.2961 112.87 22.003C112.069 22.6864 111.197 23.3461 110.254 23.9824L117.005 31.3343C117.453 30.8395 117.865 30.3329 118.242 29.8145C118.619 29.296 118.949 28.8366 119.232 28.436C119.397 28.1768 119.55 27.9411 119.692 27.729C119.833 27.4934 119.963 27.2578 120.08 27.0221L121.141 27.729C121.047 27.9647 120.929 28.2121 120.787 28.4713C120.67 28.7305 120.528 28.9897 120.363 29.2489C120.104 29.6966 119.774 30.2033 119.374 30.7688C118.997 31.3108 118.549 31.8645 118.03 32.4301L121.318 36H116.899L115.521 34.5862C115.309 34.7511 114.908 35.0103 114.319 35.3638C113.73 35.6937 112.999 36 112.128 36.2828C111.256 36.5655 110.278 36.7069 109.194 36.7069ZM109.653 35.3638C110.69 35.3638 111.621 35.187 112.446 34.8336C113.294 34.4566 114.013 34.0206 114.602 33.5258L107.639 25.9971C106.932 26.6098 106.331 27.3167 105.836 28.1179C105.341 28.8955 105.094 29.7909 105.094 30.8041C105.094 32.2415 105.471 33.3608 106.225 34.162C106.979 34.9632 108.122 35.3638 109.653 35.3638ZM109.017 22.6039C109.818 21.897 110.49 21.1193 111.032 20.271C111.574 19.4227 111.845 18.4213 111.845 17.2666C111.845 16.277 111.715 15.4993 111.456 14.9338C111.197 14.3447 110.867 13.9323 110.466 13.6967C110.089 13.4375 109.712 13.3079 109.335 13.3079C108.84 13.3079 108.381 13.4375 107.957 13.6967C107.556 13.9559 107.238 14.3918 107.002 15.0045C106.767 15.5936 106.649 16.4183 106.649 17.4787C106.649 18.1385 106.743 18.7512 106.932 19.3167C107.12 19.8822 107.344 20.3889 107.603 20.8366C107.863 21.2843 108.122 21.6613 108.381 21.9677C108.64 22.2504 108.852 22.4625 109.017 22.6039ZM139.306 36V14.1915H136.514C135.194 14.1915 134.157 14.5097 133.403 15.1459C132.673 15.7821 132.308 16.8543 132.308 18.3624H131.389V15.4993C131.389 15.0281 131.471 14.5803 131.636 14.1562C131.801 13.7085 132.096 13.355 132.52 13.0958C132.967 12.813 133.592 12.6717 134.393 12.6717H150.935V14.1915H143.3V36H139.306ZM158.004 36.3535C156.308 36.3535 154.847 35.9764 153.621 35.2224C152.396 34.4448 151.453 33.3962 150.794 32.0766C150.157 30.757 149.839 29.296 149.839 27.6937C149.839 26.0678 150.157 24.6068 150.794 23.3108C151.453 21.9912 152.396 20.9544 153.621 20.2004C154.847 19.4227 156.308 19.0339 158.004 19.0339C159.724 19.0339 161.197 19.4227 162.422 20.2004C163.648 20.9544 164.579 21.9912 165.215 23.3108C165.875 24.6068 166.204 26.0678 166.204 27.6937C166.204 29.296 165.875 30.757 165.215 32.0766C164.579 33.3962 163.648 34.4448 162.422 35.2224C161.197 35.9764 159.724 36.3535 158.004 36.3535ZM158.004 34.8336C158.876 34.8336 159.607 34.5273 160.196 33.9146C160.785 33.2784 161.232 32.4183 161.539 31.3343C161.869 30.2504 162.034 29.0368 162.034 27.6937C162.034 26.327 161.869 25.1134 161.539 24.0531C161.232 22.9691 160.785 22.1208 160.196 21.5082C159.607 20.8719 158.876 20.5538 158.004 20.5538C157.179 20.5538 156.461 20.8719 155.848 21.5082C155.259 22.1208 154.799 22.9691 154.47 24.0531C154.163 25.1134 154.01 26.327 154.01 27.6937C154.01 29.0368 154.163 30.2504 154.47 31.3343C154.799 32.4183 155.259 33.2784 155.848 33.9146C156.461 34.5273 157.179 34.8336 158.004 34.8336ZM176.454 36.3535C175.181 36.3535 174.062 36.1532 173.096 35.7526C172.153 35.3284 171.423 34.6451 170.904 33.7025C170.386 32.76 170.127 31.4993 170.127 29.9205V23.841C170.127 22.7806 169.974 21.9323 169.667 21.2961C169.384 20.6363 168.713 20.3064 167.653 20.3064H167.299V19.3874H170.975C171.8 19.3874 172.436 19.517 172.884 19.7762C173.355 20.0354 173.685 20.4831 173.873 21.1193C174.062 21.7556 174.156 22.6628 174.156 23.841V29.9205C174.156 31.1223 174.298 32.0766 174.58 32.7835C174.887 33.4904 175.287 33.9971 175.782 34.3034C176.301 34.6097 176.878 34.7629 177.514 34.7629C178.032 34.7629 178.504 34.6569 178.928 34.4448C179.352 34.2091 179.729 33.9264 180.059 33.5965C180.389 33.2666 180.648 32.9485 180.837 32.6421V19.3874H184.866V36H182.356L181.119 34.4801H180.943C180.495 34.9514 179.894 35.3873 179.14 35.7879C178.386 36.1649 177.49 36.3535 176.454 36.3535ZM189.982 36V23.841C189.982 22.7806 189.84 21.9323 189.558 21.2961C189.275 20.6363 188.603 20.3064 187.543 20.3064H187.189V19.3874H190.406C191.231 19.3874 191.867 19.5052 192.315 19.7409C192.786 19.9529 193.139 20.3064 193.375 20.8012C193.799 20.4242 194.388 20.0354 195.142 19.6348C195.896 19.2342 196.792 19.0339 197.829 19.0339C198.276 19.0339 198.7 19.0928 199.101 19.2107C199.525 19.3049 199.879 19.4581 200.161 19.6702C200.515 19.9058 200.786 20.2004 200.974 20.5538C201.163 20.8837 201.304 21.1193 201.399 21.2607L199.737 22.4978C199.502 22.1679 199.16 21.8852 198.712 21.6495C198.265 21.3903 197.746 21.2607 197.157 21.2607C196.427 21.2607 195.779 21.3903 195.213 21.6495C194.671 21.9087 194.235 22.2386 193.905 22.6392C193.929 22.922 193.952 23.193 193.976 23.4522C193.999 23.6878 194.011 23.8881 194.011 24.0531V36H189.982Z" fill="url(#paint0_linear_1630_89832)"/>
<path d="M8.55372 36H7.67007V36.8836H8.55372V36ZM8.55372 14.1915H9.43737V13.3079H8.55372V14.1915ZM2.65095 15.1459L2.08104 14.4704L2.07058 14.4795L2.65095 15.1459ZM1.55522 18.3624V19.246H2.43887V18.3624H1.55522ZM0.636227 18.3624H-0.247422V19.246H0.636227V18.3624ZM0.883649 14.1562L1.70721 14.4765L1.71008 14.4691L1.71282 14.4617L0.883649 14.1562ZM1.7673 13.0958L2.22813 13.8499L2.23916 13.8429L1.7673 13.0958ZM20.1825 12.6717H21.0662V11.788H20.1825V12.6717ZM20.1825 14.1915V15.0752H21.0662V14.1915H20.1825ZM12.5478 14.1915V13.3079H11.6642V14.1915H12.5478ZM12.5478 36V36.8836H13.4315V36H12.5478ZM9.43737 36V14.1915H7.67007V36H9.43737ZM8.55372 13.3079H5.76139V15.0752H8.55372V13.3079ZM5.76139 13.3079C4.30412 13.3079 3.04145 13.6602 2.08111 14.4705L3.22079 15.8212C3.76854 15.3591 4.5795 15.0752 5.76139 15.0752V13.3079ZM2.07058 14.4795C1.06159 15.3583 0.671573 16.7403 0.671573 18.3624H2.43887C2.43887 16.9682 2.77934 16.2059 3.23131 15.8122L2.07058 14.4795ZM1.55522 17.4787H0.636227V19.246H1.55522V17.4787ZM1.51988 18.3624V15.4993H-0.247422V18.3624H1.51988ZM1.51988 15.4993C1.51988 15.1337 1.58339 14.7949 1.70721 14.4765L0.060084 13.8359C-0.145985 14.3658 -0.247422 14.9225 -0.247422 15.4993H1.51988ZM1.71282 14.4617C1.80593 14.2089 1.96606 14.0099 2.22808 13.8498L1.30652 12.3418C0.720229 12.7001 0.291262 13.208 0.0544831 13.8507L1.71282 14.4617ZM2.23916 13.8429C2.49074 13.684 2.9268 13.5553 3.64063 13.5553V11.788C2.75212 11.788 1.93928 11.9421 1.29544 12.3487L2.23916 13.8429ZM3.64063 13.5553H20.1825V11.788H3.64063V13.5553ZM19.2989 12.6717V14.1915H21.0662V12.6717H19.2989ZM20.1825 13.3079H12.5478V15.0752H20.1825V13.3079ZM11.6642 14.1915V36H13.4315V14.1915H11.6642ZM12.5478 35.1164H8.55372V36.8836H12.5478V35.1164ZM22.8688 35.2224L22.3953 35.9686L22.4057 35.975L22.8688 35.2224ZM20.0412 32.0766L19.2451 32.4604L19.2508 32.4718L20.0412 32.0766ZM20.0412 23.3108L19.2508 22.9156L19.2479 22.9214L20.0412 23.3108ZM22.8688 20.2004L23.332 20.953L23.3423 20.9464L22.8688 20.2004ZM31.67 20.2004L31.1965 20.9465L31.2069 20.9529L31.67 20.2004ZM34.4623 23.3108L33.6664 23.6946L33.6705 23.7032L33.6748 23.7117L34.4623 23.3108ZM34.4623 32.0766L33.6719 31.6814L33.6664 31.6928L34.4623 32.0766ZM31.67 35.2224L32.1331 35.975L32.1435 35.9685L31.67 35.2224ZM29.4432 33.9146L30.0802 34.5271L30.0859 34.5211L30.0916 34.5149L29.4432 33.9146ZM30.7863 31.3343L29.941 31.077L29.9384 31.0855L29.936 31.094L30.7863 31.3343ZM30.7863 24.0531L29.936 24.2934L29.9391 24.3045L29.9426 24.3156L30.7863 24.0531ZM29.4432 21.5082L28.7948 22.1085L28.8005 22.1146L28.8062 22.1206L29.4432 21.5082ZM25.0956 21.5082L24.4591 20.8952L24.4587 20.8957L25.0956 21.5082ZM23.7171 24.0531L22.8717 23.7958L22.8682 23.8078L23.7171 24.0531ZM23.7171 31.3343L22.8668 31.5746L22.8692 31.5832L22.8718 31.5916L23.7171 31.3343ZM25.0956 33.9146L24.4472 34.5149L24.4588 34.5274L24.4708 34.5394L25.0956 33.9146ZM27.2517 35.4698C25.689 35.4698 24.3947 35.1238 23.332 34.4698L22.4057 35.975C23.7936 36.829 25.4213 37.2371 27.2517 37.2371V35.4698ZM23.3423 34.4763C22.2549 33.7862 21.4208 32.8599 20.8315 31.6814L19.2508 32.4718C19.9811 33.9324 21.0321 35.1034 22.3954 35.9685L23.3423 34.4763ZM20.8371 31.6928C20.2639 30.5038 19.9705 29.1758 19.9705 27.6937H18.2032C18.2032 29.4163 18.546 31.0102 19.2452 32.4604L20.8371 31.6928ZM19.9705 27.6937C19.9705 26.1856 20.2648 24.8605 20.8344 23.7002L19.2479 22.9214C18.5451 24.3531 18.2032 25.9499 18.2032 27.6937H19.9705ZM20.8315 23.706C21.4196 22.5297 22.2506 21.6184 23.332 20.9529L22.4057 19.4478C21.0364 20.2904 19.9823 21.4527 19.2508 22.9156L20.8315 23.706ZM23.3423 20.9464C24.4035 20.273 25.694 19.9176 27.2517 19.9176V18.1503C25.4163 18.1503 23.7848 18.5725 22.3954 19.4543L23.3423 20.9464ZM27.2517 19.9176C28.8357 19.9176 30.1372 20.2742 31.1965 20.9464L32.1435 19.4543C30.7521 18.5713 29.1081 18.1503 27.2517 18.1503V19.9176ZM31.2069 20.9529C32.2855 21.6167 33.1021 22.5243 33.6664 23.6946L35.2583 22.927C34.5501 21.4582 33.5051 20.2921 32.1331 19.4478L31.2069 20.9529ZM33.6748 23.7117C34.2643 24.8695 34.5684 26.1905 34.5684 27.6937H36.3357C36.3357 25.9451 35.9799 24.3441 35.2498 22.9099L33.6748 23.7117ZM34.5684 27.6937C34.5684 29.1709 34.2652 30.4949 33.672 31.6814L35.2527 32.4718C35.979 31.0192 36.3357 29.4212 36.3357 27.6937H34.5684ZM33.6664 31.6928C33.101 32.8654 32.2813 33.7879 31.1965 34.4763L32.1435 35.9685C33.5094 35.1017 34.5512 33.927 35.2583 32.4604L33.6664 31.6928ZM31.2069 34.4698C30.1459 35.1227 28.8406 35.4698 27.2517 35.4698V37.2371C29.1032 37.2371 30.7434 36.8302 32.1331 35.975L31.2069 34.4698ZM27.2517 35.7172C28.357 35.7172 29.3197 35.318 30.0802 34.5271L28.8062 33.3021C28.3885 33.7365 27.8902 33.9499 27.2517 33.9499V35.7172ZM30.0916 34.5149C30.7995 33.7504 31.3034 32.7541 31.6367 31.5746L29.936 31.094C29.6566 32.0825 29.2651 32.8064 28.7948 33.3142L30.0916 34.5149ZM31.6317 31.5916C31.9912 30.4105 32.1648 29.1083 32.1648 27.6937H30.3975C30.3975 28.9653 30.2413 30.0903 29.941 31.077L31.6317 31.5916ZM32.1648 27.6937C32.1648 26.2577 31.9917 24.9529 31.6301 23.7906L29.9426 24.3156C30.2408 25.274 30.3975 26.3963 30.3975 27.6937H32.1648ZM31.6367 23.8127C31.3032 22.6329 30.7973 21.6415 30.0802 20.8957L28.8062 22.1206C29.2673 22.6002 29.6568 23.3054 29.936 24.2934L31.6367 23.8127ZM30.0916 20.9078C29.3342 20.0898 28.3682 19.6702 27.2517 19.6702V21.4375C27.879 21.4375 28.374 21.654 28.7948 22.1085L30.0916 20.9078ZM27.2517 19.6702C26.1685 19.6702 25.2252 20.0997 24.4591 20.8952L25.7321 22.1211C26.1914 21.6442 26.6855 21.4375 27.2517 21.4375V19.6702ZM24.4587 20.8957C23.7464 21.6364 23.2293 22.6211 22.8718 23.7958L24.5625 24.3103C24.8648 23.3171 25.2666 22.6052 25.7326 22.1206L24.4587 20.8957ZM22.8682 23.8078C22.5341 24.9642 22.374 26.2629 22.374 27.6937H24.1413C24.1413 26.3911 24.2875 25.2627 24.5661 24.2983L22.8682 23.8078ZM22.374 27.6937C22.374 29.103 22.5346 30.3992 22.8668 31.5746L24.5675 31.094C24.287 30.1016 24.1413 28.9707 24.1413 27.6937H22.374ZM22.8718 31.5916C23.2291 32.7657 23.744 33.7554 24.4472 34.5149L25.744 33.3142C25.2691 32.8013 24.865 32.0709 24.5625 31.077L22.8718 31.5916ZM24.4708 34.5394C25.2399 35.3085 26.1798 35.7172 27.2517 35.7172V33.9499C26.6742 33.9499 26.1767 33.746 25.7205 33.2898L24.4708 34.5394ZM41.4244 35.2224L40.8941 35.9294L40.9046 35.937L41.4244 35.2224ZM39.0915 32.0766L39.914 31.7535V31.7535L39.0915 32.0766ZM39.0915 23.3108L38.2741 22.9751L38.2711 22.9826L39.0915 23.3108ZM41.4951 20.2004L42.0072 20.9205L42.0101 20.9184L41.4951 20.2004ZM47.8573 19.3874L47.5601 20.2196L47.5735 20.2243L47.5869 20.2287L47.8573 19.3874ZM49.5539 20.0943L49.1281 20.8686L50.4376 21.5888V20.0943H49.5539ZM49.0944 14.5803L48.2822 14.9284L48.2899 14.9462L48.2983 14.9637L49.0944 14.5803ZM46.5849 13.5907H45.7012V14.4743H46.5849V13.5907ZM46.5849 12.6717V11.788H45.7012V12.6717H46.5849ZM52.3109 13.0605L51.8682 13.8252L51.8766 13.8301L51.8851 13.8347L52.3109 13.0605ZM53.3006 14.4036L54.1479 14.1526L53.3006 14.4036ZM53.5834 36V36.8836H54.467V36H53.5834ZM51.0738 36L50.3763 36.5425L50.6416 36.8836H51.0738V36ZM49.8367 34.4094L50.5342 33.8669L50.2689 33.5258H49.8367V34.4094ZM49.66 34.4094V33.5258H49.1999L48.9361 33.9027L49.66 34.4094ZM48.1048 35.7526L48.5517 36.5149L48.5594 36.5103L48.1048 35.7526ZM47.7513 34.4801L47.3397 33.6982L47.3309 33.7028L47.3222 33.7077L47.7513 34.4801ZM49.5539 32.6068L50.3065 33.0699L50.4376 32.8569V32.6068H49.5539ZM49.5539 21.6142H50.4376V21.1186L50.0147 20.8602L49.5539 21.6142ZM48.1048 20.9073L47.7524 21.7176L47.7675 21.7242L47.7827 21.7302L48.1048 20.9073ZM44.1107 21.5082L43.4623 20.9078L43.4613 20.9088L44.1107 21.5082ZM42.8735 24.0531L42.0141 23.8475L42.0125 23.8544L42.0109 23.8614L42.8735 24.0531ZM42.8735 31.3343L42.0101 31.522V31.522L42.8735 31.3343ZM44.04 33.9146L43.3673 34.4876L43.3726 34.4939L43.3781 34.5001L44.04 33.9146ZM45.3124 35.4698C43.9033 35.4698 42.8 35.1302 41.9441 34.5078L40.9046 35.937C42.1223 36.8226 43.6111 37.2371 45.3124 37.2371V35.4698ZM41.9546 34.5155C41.0611 33.8454 40.3783 32.9353 39.914 31.7535L38.2691 32.3997C38.8416 33.857 39.714 35.0442 40.8942 35.9293L41.9546 34.5155ZM39.914 31.7535C39.4409 30.5494 39.1976 29.1998 39.1976 27.6937H37.4303C37.4303 29.3923 37.7053 30.9647 38.2691 32.3997L39.914 31.7535ZM39.1976 27.6937C39.1976 26.1619 39.4416 24.8149 39.912 23.639L38.2711 22.9826C37.7046 24.3987 37.4303 25.9736 37.4303 27.6937H39.1976ZM39.9089 23.6465C40.3938 22.4659 41.0958 21.5686 42.0072 20.9205L40.983 19.4802C39.7736 20.3402 38.8732 21.5165 38.2741 22.9751L39.9089 23.6465ZM42.0101 20.9184C42.9136 20.2702 44.0776 19.9176 45.5598 19.9176V18.1503C43.7903 18.1503 42.2444 18.5753 40.98 19.4824L42.0101 20.9184ZM45.5598 19.9176C46.3542 19.9176 47.0158 20.0252 47.5601 20.2196L48.1545 18.5552C47.3793 18.2783 46.5092 18.1503 45.5598 18.1503V19.9176ZM47.5869 20.2287C48.2074 20.4281 48.7181 20.6431 49.1281 20.8686L49.9798 19.32C49.4472 19.0271 48.8268 18.7708 48.1277 18.5461L47.5869 20.2287ZM50.4376 20.0943V17.1253H48.6703V20.0943H50.4376ZM50.4376 17.1253C50.4376 15.9929 50.2761 14.9976 49.8906 14.197L48.2983 14.9637C48.5255 15.4355 48.6703 16.1368 48.6703 17.1253H50.4376ZM49.9066 14.2323C49.4213 13.0998 48.2987 12.707 47.0797 12.707V14.4743C47.9815 14.4743 48.202 14.7413 48.2822 14.9284L49.9066 14.2323ZM47.0797 12.707H46.5849V14.4743H47.0797V12.707ZM47.4685 13.5907V12.6717H45.7012V13.5907H47.4685ZM46.5849 13.5553H50.4022V11.788H46.5849V13.5553ZM50.4022 13.5553C51.155 13.5553 51.6124 13.6771 51.8682 13.8252L52.7537 12.2957C52.114 11.9254 51.299 11.788 50.4022 11.788V13.5553ZM51.8851 13.8347C52.107 13.9568 52.3146 14.1863 52.4534 14.6547L54.1479 14.1526C53.9096 13.3485 53.4574 12.6825 52.7368 12.2862L51.8851 13.8347ZM52.4534 14.6547C52.6059 15.1696 52.6997 15.9771 52.6997 17.1253H54.467C54.467 15.917 54.3723 14.9101 54.1479 14.1526L52.4534 14.6547ZM52.6997 17.1253V36H54.467V17.1253H52.6997ZM53.5834 35.1164H51.0738V36.8836H53.5834V35.1164ZM51.7713 35.4575L50.5342 33.8669L49.1392 34.9519L50.3763 36.5425L51.7713 35.4575ZM49.8367 33.5258H49.66V35.2931H49.8367V33.5258ZM48.9361 33.9027C48.7011 34.2383 48.2933 34.609 47.6501 34.9949L48.5594 36.5103C49.3301 36.0479 49.959 35.5231 50.3839 34.9162L48.9361 33.9027ZM47.6579 34.9903C47.1605 35.2818 46.4047 35.4698 45.3124 35.4698V37.2371C46.5765 37.2371 47.6823 37.0245 48.5516 36.5149L47.6579 34.9903ZM46.1607 35.7172C46.9018 35.7172 47.5904 35.5804 48.1804 35.2526L47.3222 33.7077C47.0639 33.8512 46.6921 33.9499 46.1607 33.9499V35.7172ZM48.1628 35.2621C48.7055 34.9765 49.1698 34.6075 49.537 34.1485L48.157 33.0445C47.9587 33.2923 47.6925 33.5125 47.3397 33.6982L48.1628 35.2621ZM49.537 34.1485C49.837 33.7736 50.0949 33.4138 50.3065 33.0699L48.8014 32.1437C48.636 32.4124 48.4226 32.7125 48.157 33.0445L49.537 34.1485ZM50.4376 32.6068V21.6142H48.6703V32.6068H50.4376ZM50.0147 20.8602C49.5397 20.5699 49.009 20.3122 48.4268 20.0844L47.7827 21.7302C48.2845 21.9265 48.7199 22.1401 49.0932 22.3682L50.0147 20.8602ZM48.4571 20.0969C47.8043 19.8131 47.1189 19.6702 46.4081 19.6702V21.4375C46.8756 21.4375 47.3213 21.5302 47.7524 21.7176L48.4571 20.0969ZM46.4081 19.6702C45.2434 19.6702 44.2342 20.0741 43.4623 20.9078L44.759 22.1085C45.1653 21.6697 45.6878 21.4375 46.4081 21.4375V19.6702ZM43.4613 20.9088C42.7644 21.6638 42.2971 22.6642 42.0141 23.8475L43.733 24.2586C43.9684 23.274 44.3258 22.5778 44.76 22.1075L43.4613 20.9088ZM42.0109 23.8614C41.7583 24.9984 41.6364 26.2782 41.6364 27.6937H43.4037C43.4037 26.3757 43.5175 25.2285 43.7362 24.2448L42.0109 23.8614ZM41.6364 27.6937C41.6364 29.0872 41.7586 30.3651 42.0101 31.522L43.737 31.1466C43.5173 30.1356 43.4037 28.9865 43.4037 27.6937H41.6364ZM42.0101 31.522C42.2669 32.7034 42.7052 33.7103 43.3673 34.4876L44.7126 33.3416C44.2908 32.8464 43.9515 32.1332 43.737 31.1466L42.0101 31.522ZM43.3781 34.5001C44.0999 35.316 45.0546 35.7172 46.1607 35.7172V33.9499C45.5231 33.9499 45.064 33.7385 44.7018 33.3291L43.3781 34.5001ZM60.4789 36.0353L60.7408 35.1914L60.7312 35.1884L60.7216 35.1857L60.4789 36.0353ZM58.7116 35.1517L59.2519 34.4525L58.7116 35.1517ZM57.4745 33.6318L56.6721 34.0021L56.6779 34.0147L56.6841 34.027L57.4745 33.6318ZM58.04 28.5773L58.705 29.1592L58.04 28.5773ZM61.0798 26.9161L61.301 27.7716L61.311 27.7689L61.0798 26.9161ZM67.1239 26.3506V27.2342H68.0076V26.3506H67.1239ZM66.6998 22.8513L65.8614 23.1307L65.8639 23.1379L66.6998 22.8513ZM65.4627 21.084L64.9649 21.8141L64.9837 21.827L65.0032 21.8388L65.4627 21.084ZM61.3272 21.19L61.7858 21.9454L61.7955 21.9395L61.805 21.9333L61.3272 21.19ZM59.9487 23.6643V24.5479H60.6678L60.8139 23.8438L59.9487 23.6643ZM58.146 23.6643H57.2624V24.5479H58.146V23.6643ZM58.2521 21.8616L57.3795 21.722L57.3768 21.7391L57.3747 21.7563L58.2521 21.8616ZM59.0297 20.271L58.3729 19.6799L59.0297 20.271ZM61.1504 19.3167L61.2957 20.1883L61.3039 20.187L61.3121 20.1854L61.1504 19.3167ZM67.0886 19.4227L66.8236 20.2658L66.8304 20.2678L67.0886 19.4227ZM69.2447 20.6599L68.6327 21.2973L68.639 21.3033L68.6453 21.3092L69.2447 20.6599ZM70.6585 22.9573L69.8223 23.2429L69.8245 23.2493L70.6585 22.9573ZM71.1534 36V36.8836H72.037V36H71.1534ZM68.6438 36L67.9463 36.5425L68.2116 36.8836H68.6438V36ZM67.4067 34.4094L68.1042 33.8669L67.8389 33.5258H67.4067V34.4094ZM67.23 34.4094V33.5258H66.7699L66.506 33.9027L67.23 34.4094ZM65.604 35.7526L66.0186 36.5329L66.028 36.528L66.0373 36.5227L65.604 35.7526ZM65.9575 33.9499L66.5669 34.5898L66.5676 34.5891L65.9575 33.9499ZM67.1239 32.4301L67.9143 32.8252L68.0076 32.6387V32.4301H67.1239ZM67.1239 27.8704H68.0076V26.9868H67.1239V27.8704ZM62.5289 28.8248L63.0463 29.5411L63.0528 29.5365L63.0591 29.5317L62.5289 28.8248ZM62.7057 35.4698C61.9828 35.4698 61.3299 35.3742 60.7408 35.1914L60.217 36.8793C60.9946 37.1206 61.8262 37.2371 62.7057 37.2371V35.4698ZM60.7216 35.1857C60.1645 35.0265 59.6774 34.7813 59.2519 34.4525L58.1713 35.8509C58.7826 36.3233 59.4737 36.6672 60.2361 36.885L60.7216 35.1857ZM59.2519 34.4525C58.8434 34.1369 58.5145 33.736 58.2648 33.2366L56.6841 34.027C57.0471 34.753 57.5429 35.3654 58.1713 35.8509L59.2519 34.4525ZM58.2768 33.2615C58.0567 32.7847 57.934 32.208 57.934 31.5111H56.1667C56.1667 32.4164 56.3267 33.2536 56.6721 34.0021L58.2768 33.2615ZM57.934 31.5111C57.934 30.4785 58.2131 29.7214 58.705 29.1592L57.375 27.9955C56.5473 28.9414 56.1667 30.1401 56.1667 31.5111H57.934ZM58.705 29.1592C59.2089 28.5834 60.0386 28.0981 61.301 27.7716L60.8585 26.0606C59.3875 26.441 58.1907 27.0632 57.375 27.9955L58.705 29.1592ZM61.311 27.7689C62.5989 27.4197 64.2813 27.2342 66.3817 27.2342V25.4669C64.1933 25.4669 62.3412 25.6584 60.8485 26.0632L61.311 27.7689ZM66.3817 27.2342H67.1239V25.4669H66.3817V27.2342ZM68.0076 26.3506C68.0076 24.8052 67.865 23.5253 67.5357 22.5647L65.8639 23.1379C66.1001 23.8268 66.2403 24.8797 66.2403 26.3506H68.0076ZM67.5381 22.5719C67.2159 21.6055 66.7035 20.8048 65.9221 20.3292L65.0032 21.8388C65.3057 22.023 65.618 22.4005 65.8615 23.1307L67.5381 22.5719ZM65.9604 20.3539C65.2772 19.888 64.4858 19.6702 63.6247 19.6702V21.4375C64.1773 21.4375 64.6113 21.5731 64.9649 21.8141L65.9604 20.3539ZM63.6247 19.6702C62.6029 19.6702 61.6673 19.9209 60.8493 20.4467L61.805 21.9333C62.3067 21.6109 62.9027 21.4375 63.6247 21.4375V19.6702ZM60.8686 20.4347C59.8968 21.0247 59.3613 22.146 59.0835 23.4847L60.8139 23.8438C61.0545 22.6847 61.438 22.1565 61.7858 21.9454L60.8686 20.4347ZM59.9487 22.7806H58.146V24.5479H59.9487V22.7806ZM59.0297 23.6643C59.0297 23.0856 59.0631 22.5199 59.1294 21.9669L57.3747 21.7563C57.2997 22.3815 57.2624 23.0175 57.2624 23.6643H59.0297ZM59.1246 22.0012C59.1903 21.591 59.3688 21.2152 59.6865 20.8622L58.3729 19.6799C57.8423 20.2694 57.5024 20.954 57.3795 21.722L59.1246 22.0012ZM59.6865 20.8622C59.9185 20.6043 60.3957 20.3383 61.2957 20.1883L61.0052 18.4451C59.9258 18.625 58.9891 18.9952 58.3729 19.6799L59.6865 20.8622ZM61.3121 20.1854C62.2682 20.0076 63.2743 19.9176 64.3316 19.9176V18.1503C63.1739 18.1503 62.0592 18.2488 60.9888 18.448L61.3121 20.1854ZM64.3316 19.9176C65.27 19.9176 66.0979 20.0377 66.8236 20.2657L67.3535 18.5797C66.4298 18.2894 65.4196 18.1503 64.3316 18.1503V19.9176ZM66.8304 20.2678C67.5577 20.4901 68.1521 20.8359 68.6327 21.2973L69.8566 20.0224C69.1591 19.3528 68.316 18.8738 67.3468 18.5777L66.8304 20.2678ZM68.6453 21.3092C69.1283 21.755 69.5293 22.3849 69.8223 23.2429L71.4948 22.6718C71.1279 21.5975 70.5863 20.6958 69.844 20.0105L68.6453 21.3092ZM69.8245 23.2493C70.1114 24.0691 70.2697 25.1297 70.2697 26.4566H72.037C72.037 25.0029 71.8654 23.7306 71.4926 22.6654L69.8245 23.2493ZM70.2697 26.4566V36H72.037V26.4566H70.2697ZM71.1534 35.1164H68.6438V36.8836H71.1534V35.1164ZM69.3413 35.4575L68.1042 33.8669L66.7092 34.9519L67.9463 36.5425L69.3413 35.4575ZM67.4067 33.5258H67.23V35.2931H67.4067V33.5258ZM66.506 33.9027C66.2806 34.2247 65.8625 34.5933 65.1708 34.9824L66.0373 36.5227C66.8537 36.0635 67.5195 35.5367 67.9539 34.9162L66.506 33.9027ZM65.1895 34.9722C64.6023 35.2842 63.7914 35.4698 62.7057 35.4698V37.2371C63.9763 37.2371 65.0977 37.0222 66.0186 36.5329L65.1895 34.9722ZM63.9781 35.5405C64.98 35.5405 65.8749 35.2488 66.5669 34.5898L65.3481 33.3101C65.0504 33.5936 64.6257 33.7732 63.9781 33.7732V35.5405ZM66.5676 34.5891C67.143 34.04 67.6002 33.4534 67.9143 32.8252L66.3336 32.0349C66.1292 32.4435 65.8089 32.8702 65.3474 33.3107L66.5676 34.5891ZM68.0076 32.4301V27.8704H66.2403V32.4301H68.0076ZM67.1239 26.9868H66.3817V28.7541H67.1239V26.9868ZM66.3817 26.9868C64.5798 26.9868 63.0691 27.3151 61.9988 28.1178L63.0591 29.5317C63.6854 29.062 64.7431 28.7541 66.3817 28.7541V26.9868ZM62.0116 28.1084C60.9017 28.91 60.3728 30.0904 60.3728 31.5111H62.1401C62.1401 30.5754 62.4595 29.9649 63.0463 29.5411L62.0116 28.1084ZM60.3728 31.5111C60.3728 32.7009 60.6634 33.7582 61.4093 34.5041L62.6589 33.2544C62.368 32.9635 62.1401 32.4419 62.1401 31.5111H60.3728ZM61.4093 34.5041C62.1042 35.199 62.9819 35.5405 63.9781 35.5405V33.7732C63.4191 33.7732 63.0008 33.5963 62.6589 33.2544L61.4093 34.5041ZM76.2606 43.0692H75.3769V43.9528H76.2606V43.0692ZM76.2606 41.9028V41.0191H75.3769V41.9028H76.2606ZM79.2296 41.1959L78.7816 40.4342L79.2296 41.1959ZM81.2444 38.3682L82.0695 38.6845L82.0722 38.6773L82.0748 38.6702L81.2444 38.3682ZM81.9513 36.4242L82.7817 36.7261L82.9027 36.3934L82.7605 36.0691L81.9513 36.4242ZM75.8718 22.5685L75.0529 22.9005L75.0576 22.9121L75.0626 22.9236L75.8718 22.5685ZM74.4226 20.5892L73.8706 21.2792L73.8856 21.2912L73.9012 21.3026L74.4226 20.5892ZM72.3372 19.7409H71.4535V20.5266L72.2339 20.6185L72.3372 19.7409ZM72.3372 19.0339V18.1503H71.4535V19.0339H72.3372ZM78.1339 19.8115L77.6333 20.5397L77.6462 20.5486L77.6595 20.557L78.1339 19.8115ZM79.8659 21.8616L79.0548 22.2124L79.0567 22.2168L79.8659 21.8616ZM83.9306 31.1223L83.1215 31.4774L84 33.4787L84.7593 31.4292L83.9306 31.1223ZM88.2782 19.3874V18.5037H87.6632L87.4496 19.0804L88.2782 19.3874ZM90.1162 19.3874L90.9444 19.6955L91.3877 18.5037H90.1162V19.3874ZM83.0823 38.2975L82.2541 37.9894L82.2537 37.9906L83.0823 38.2975ZM81.5625 41.2312L80.8701 40.6821L80.8656 40.6878L80.8612 40.6936L81.5625 41.2312ZM79.7598 42.6804L80.0829 43.5028L79.7598 42.6804ZM77.1442 43.0692V41.9028H75.3769V43.0692H77.1442ZM76.2606 42.7864C77.5548 42.7864 78.7089 42.5274 79.6777 41.9575L78.7816 40.4342C78.148 40.8069 77.3228 41.0191 76.2606 41.0191V42.7864ZM79.6777 41.9575C80.7303 41.3383 81.4976 40.1764 82.0695 38.6845L80.4193 38.0519C79.9072 39.3877 79.3313 40.1109 78.7816 40.4342L79.6777 41.9575ZM82.0748 38.6702L82.7817 36.7261L81.1208 36.1222L80.4139 38.0662L82.0748 38.6702ZM82.7605 36.0691L76.681 22.2135L75.0626 22.9236L81.1421 36.7792L82.7605 36.0691ZM76.6907 22.2365C76.2902 21.2487 75.7179 20.4413 74.944 19.8757L73.9012 21.3026C74.3526 21.6325 74.7464 22.1446 75.0529 22.9005L76.6907 22.2365ZM74.9746 19.8991C74.2474 19.3174 73.3939 18.9754 72.4404 18.8633L72.2339 20.6185C72.8828 20.6948 73.4196 20.9184 73.8706 21.2792L74.9746 19.8991ZM73.2208 19.7409V19.0339H71.4535V19.7409H73.2208ZM72.3372 19.9176H75.4123V18.1503H72.3372V19.9176ZM75.4123 19.9176C76.3231 19.9176 77.0489 20.138 77.6333 20.5397L78.6345 19.0834C77.7108 18.4483 76.6222 18.1503 75.4123 18.1503V19.9176ZM77.6595 20.557C78.2831 20.9539 78.7457 21.4975 79.0548 22.2123L80.6769 21.5109C80.232 20.482 79.5399 19.6589 78.6083 19.066L77.6595 20.557ZM79.0567 22.2168L83.1215 31.4774L84.7398 30.7671L80.675 21.5065L79.0567 22.2168ZM84.7593 31.4292L89.1068 19.6944L87.4496 19.0804L83.102 30.8153L84.7593 31.4292ZM88.2782 20.271H90.1162V18.5037H88.2782V20.271ZM89.288 19.0793L82.2541 37.9894L83.9106 38.6056L90.9444 19.6955L89.288 19.0793ZM82.2537 37.9906C81.7989 39.2185 81.3313 40.1006 80.8701 40.6821L82.2548 41.7803C82.8776 40.9951 83.4232 39.9213 83.911 38.6044L82.2537 37.9906ZM80.8612 40.6936C80.3922 41.3053 79.913 41.6708 79.4367 41.8579L80.0829 43.5028C80.9263 43.1715 81.6488 42.5709 82.2637 41.7688L80.8612 40.6936ZM79.4367 41.8579C78.8952 42.0707 78.265 42.1855 77.533 42.1855V43.9528C78.4505 43.9528 79.3049 43.8085 80.0829 43.5028L79.4367 41.8579ZM77.533 42.1855H76.2606V43.9528H77.533V42.1855ZM104.458 35.9647L104.108 36.776L104.114 36.7789L104.121 36.7817L104.458 35.9647ZM101.807 33.9499L101.062 34.4257L101.07 34.4378L101.078 34.4497L101.807 33.9499ZM101.736 28.436L102.481 28.9104L102.488 28.9003L101.736 28.436ZM103.715 26.2799L104.255 26.9795L103.715 26.2799ZM106.366 24.4772L106.821 25.2349L107.836 24.6258L106.963 23.8258L106.366 24.4772ZM105.306 23.4168L104.664 24.0246V24.0246L105.306 23.4168ZM104.033 21.8263L103.298 22.3164L103.302 22.3229L103.307 22.3293L104.033 21.8263ZM102.973 19.7762L103.797 19.4572L102.973 19.7762ZM104.352 13.4493L104.905 14.138L104.907 14.1367L104.352 13.4493ZM113.966 13.3786L113.379 14.039L113.386 14.0459L113.394 14.0526L113.966 13.3786ZM114.849 19.7055L115.607 20.1602L115.613 20.1508L114.849 19.7055ZM112.87 22.003L113.443 22.6753L113.445 22.6739L112.87 22.003ZM110.254 23.9824L109.76 23.25L108.909 23.8241L109.603 24.58L110.254 23.9824ZM117.005 31.3343L116.354 31.932L117.01 32.6461L117.661 31.9272L117.005 31.3343ZM118.242 29.8145L118.957 30.3342V30.3342L118.242 29.8145ZM119.232 28.436L119.954 28.9455L119.966 28.9282L119.978 28.9104L119.232 28.436ZM119.692 27.729L120.427 28.2192L120.439 28.2017L120.449 28.1837L119.692 27.729ZM120.08 27.0221L120.571 26.2869L119.738 25.7316L119.29 26.6269L120.08 27.0221ZM121.141 27.729L121.961 28.0572L122.228 27.3915L121.631 26.9938L121.141 27.729ZM120.787 28.4713L120.012 28.0482L119.996 28.0764L119.983 28.1057L120.787 28.4713ZM120.363 29.2489L119.618 28.7745L119.608 28.7901L119.598 28.8062L120.363 29.2489ZM119.374 30.7688L118.652 30.258L118.648 30.2642L119.374 30.7688ZM118.03 32.4301L117.379 31.833L116.83 32.4314L117.38 33.0286L118.03 32.4301ZM121.318 36V36.8836H123.332L121.968 35.4014L121.318 36ZM116.899 36L116.267 36.6169L116.527 36.8836H116.899V36ZM115.521 34.5862L116.154 33.9693L115.602 33.4036L114.978 33.8887L115.521 34.5862ZM114.319 35.3638L114.751 36.1348L114.762 36.1283L114.774 36.1215L114.319 35.3638ZM112.128 36.2828L111.855 35.4422L112.128 36.2828ZM112.446 34.8336L112.794 35.6459L112.805 35.6411L112.446 34.8336ZM114.602 33.5258L115.17 34.2024L115.88 33.6062L115.251 32.9258L114.602 33.5258ZM107.639 25.9971L108.287 25.3971L107.706 24.769L107.06 25.3293L107.639 25.9971ZM105.836 28.1178L106.582 28.5923L106.588 28.5822L105.836 28.1178ZM106.225 34.162L106.868 33.5564L106.225 34.162ZM109.017 22.6039L108.442 23.2748L109.026 23.7749L109.602 23.2665L109.017 22.6039ZM111.456 14.9338L110.647 15.2897L110.653 15.302L111.456 14.9338ZM110.466 13.6967L109.966 14.4249L109.991 14.4425L110.018 14.4583L110.466 13.6967ZM107.957 13.6967L107.496 12.9427L107.486 12.9486L107.477 12.9548L107.957 13.6967ZM107.002 15.0045L107.823 15.3327L107.827 15.3217L107.002 15.0045ZM106.932 19.3167L107.77 19.0373L106.932 19.3167ZM107.603 20.8366L106.839 21.2793L107.603 20.8366ZM108.381 21.9677L107.706 22.5384L107.718 22.5518L107.73 22.5648L108.381 21.9677ZM109.194 35.8233C107.301 35.8233 105.849 35.5821 104.794 35.1476L104.121 36.7817C105.469 37.3369 107.175 37.5906 109.194 37.5906V35.8233ZM104.808 35.1533C103.713 34.6809 102.982 34.101 102.535 33.4502L101.078 34.4497C101.763 35.4484 102.799 36.2116 104.108 36.776L104.808 35.1533ZM102.551 33.4742C102.101 32.7689 101.877 32.0034 101.877 31.1576H100.11C100.11 32.3383 100.429 33.4343 101.062 34.4257L102.551 33.4742ZM101.877 31.1576C101.877 30.2672 102.088 29.529 102.481 28.9104L100.99 27.9616C100.394 28.8981 100.11 29.9743 100.11 31.1576H101.877ZM102.488 28.9003C102.921 28.1988 103.506 27.5576 104.255 26.9795L103.176 25.5802C102.275 26.2746 101.541 27.0707 100.984 27.9716L102.488 28.9003ZM104.255 26.9795C105.051 26.3654 105.906 25.7838 106.821 25.2349L105.912 23.7195C104.941 24.3017 104.029 24.9219 103.176 25.5802L104.255 26.9795ZM106.963 23.8258C106.702 23.5864 106.365 23.2496 105.947 22.8091L104.664 24.0246C105.095 24.4795 105.465 24.8496 105.769 25.1286L106.963 23.8258ZM105.947 22.8091C105.56 22.4 105.164 21.9063 104.76 21.3233L103.307 22.3293C103.752 22.9716 104.204 23.5382 104.664 24.0246L105.947 22.8091ZM104.769 21.3361C104.381 20.7548 104.057 20.129 103.797 19.4572L102.149 20.0952C102.454 20.8843 102.837 21.6253 103.298 22.3164L104.769 21.3361ZM103.797 19.4572C103.555 18.8308 103.433 18.1733 103.433 17.4787H101.665C101.665 18.3864 101.826 19.2606 102.149 20.0952L103.797 19.4572ZM103.433 17.4787C103.433 15.9911 103.938 14.9155 104.905 14.138L103.798 12.7606C102.362 13.9153 101.665 15.526 101.665 17.4787H103.433ZM104.907 14.1367C105.93 13.3106 107.373 12.8484 109.335 12.8484V11.0811C107.103 11.0811 105.224 11.6086 103.796 12.7618L104.907 14.1367ZM109.335 12.8484C111.237 12.8484 112.537 13.2914 113.379 14.039L114.553 12.7181C113.273 11.5807 111.486 11.0811 109.335 11.0811V12.8484ZM113.394 14.0526C114.277 14.8015 114.708 15.732 114.708 16.9132H116.475C116.475 15.2196 115.822 13.7937 114.537 12.7046L113.394 14.0526ZM114.708 16.9132C114.708 17.7752 114.499 18.5515 114.086 19.2603L115.613 20.1508C116.189 19.1629 116.475 18.0777 116.475 16.9132H114.708ZM114.092 19.2509C113.651 19.9844 113.057 20.6791 112.295 21.3321L113.445 22.6739C114.333 21.9131 115.057 21.0761 115.607 20.1601L114.092 19.2509ZM112.296 21.3307C111.522 21.9909 110.677 22.6308 109.76 23.25L110.749 24.7148C111.717 24.0615 112.615 23.3818 113.443 22.6753L112.296 21.3307ZM109.603 24.58L116.354 31.932L117.656 30.7367L110.905 23.3847L109.603 24.58ZM117.661 31.9272C118.129 31.41 118.561 30.879 118.957 30.3342L117.528 29.2947C117.17 29.7867 116.778 30.269 116.35 30.7415L117.661 31.9272ZM118.957 30.3342C119.336 29.8134 119.668 29.3504 119.954 28.9455L118.51 27.9264C118.23 28.3227 117.903 28.7787 117.528 29.2947L118.957 30.3342ZM119.978 28.9104C120.14 28.6554 120.29 28.4251 120.427 28.2192L118.956 27.2389C118.811 27.4571 118.654 27.6981 118.487 27.9616L119.978 28.9104ZM120.449 28.1837C120.602 27.9295 120.742 27.674 120.871 27.4173L119.29 26.6269C119.183 26.8415 119.064 27.0573 118.934 27.2744L120.449 28.1837ZM119.59 27.7574L120.651 28.4643L121.631 26.9938L120.571 26.2869L119.59 27.7574ZM120.32 27.4009C120.241 27.5993 120.139 27.8149 120.012 28.0482L121.563 28.8944C121.719 28.6093 121.852 28.3301 121.961 28.0572L120.32 27.4009ZM119.983 28.1057C119.883 28.3245 119.762 28.5474 119.618 28.7745L121.109 29.7233C121.294 29.432 121.456 29.1366 121.592 28.837L119.983 28.1057ZM119.598 28.8062C119.356 29.2243 119.042 29.7076 118.652 30.258L120.095 31.2796C120.506 30.6989 120.852 30.169 121.128 29.6917L119.598 28.8062ZM118.648 30.2642C118.297 30.769 117.875 31.292 117.379 31.833L118.682 33.0272C119.223 32.437 119.696 31.8525 120.099 31.2734L118.648 30.2642ZM117.38 33.0286L120.668 36.5986L121.968 35.4014L118.68 31.8315L117.38 33.0286ZM121.318 35.1164H116.899V36.8836H121.318V35.1164ZM117.532 35.3831L116.154 33.9693L114.888 35.203L116.267 36.6169L117.532 35.3831ZM114.978 33.8887C114.814 34.0168 114.456 34.2513 113.864 34.606L114.774 36.1215C115.361 35.7693 115.804 35.4854 116.063 35.2837L114.978 33.8887ZM113.887 34.5928C113.363 34.8863 112.69 35.1715 111.855 35.4422L112.4 37.1233C113.309 36.8285 114.097 36.501 114.751 36.1348L113.887 34.5928ZM111.855 35.4422C111.086 35.6918 110.202 35.8233 109.194 35.8233V37.5906C110.354 37.5906 111.426 37.4393 112.4 37.1233L111.855 35.4422ZM109.653 36.2474C110.791 36.2474 111.843 36.0531 112.794 35.6458L112.098 34.0214C111.399 34.3209 110.589 34.4801 109.653 34.4801V36.2474ZM112.805 35.6411C113.713 35.2371 114.506 34.7601 115.17 34.2024L114.033 32.8492C113.519 33.2812 112.875 33.676 112.087 34.0261L112.805 35.6411ZM115.251 32.9258L108.287 25.3971L106.99 26.5971L113.953 34.1258L115.251 32.9258ZM107.06 25.3293C106.285 26.001 105.626 26.7767 105.084 27.6535L106.588 28.5822C107.036 27.8567 107.579 27.2185 108.217 26.6649L107.06 25.3293ZM105.091 27.6434C104.497 28.5768 104.21 29.6401 104.21 30.8041H105.977C105.977 29.9416 106.186 29.2142 106.582 28.5923L105.091 27.6434ZM104.21 30.8041C104.21 32.3955 104.63 33.7572 105.581 34.7676L106.868 33.5564C106.311 32.9645 105.977 32.0876 105.977 30.8041H104.21ZM105.581 34.7676C106.559 35.8069 107.976 36.2474 109.653 36.2474V34.4801C108.267 34.4801 107.398 34.1195 106.868 33.5564L105.581 34.7676ZM109.602 23.2665C110.461 22.5084 111.188 21.6687 111.777 20.7468L110.287 19.7953C109.792 20.57 109.176 21.2855 108.433 21.9413L109.602 23.2665ZM111.777 20.7468C112.422 19.7364 112.728 18.5645 112.728 17.2666H110.961C110.961 18.2781 110.726 19.1091 110.287 19.7953L111.777 20.7468ZM112.728 17.2666C112.728 16.2167 112.594 15.295 112.259 14.5656L110.653 15.302C110.837 15.7037 110.961 16.3372 110.961 17.2666H112.728ZM112.265 14.5779C111.959 13.8828 111.526 13.2948 110.914 12.935L110.018 14.4583C110.208 14.5699 110.435 14.8066 110.647 15.2897L112.265 14.5779ZM110.967 12.9685C110.475 12.63 109.926 12.4242 109.335 12.4242V14.1915C109.498 14.1915 109.704 14.245 109.966 14.4249L110.967 12.9685ZM109.335 12.4242C108.677 12.4242 108.058 12.5991 107.496 12.9427L108.418 14.4507C108.704 14.2759 109.004 14.1915 109.335 14.1915V12.4242ZM107.477 12.9548C106.87 13.3474 106.456 13.9643 106.178 14.6873L107.827 15.3217C108.02 14.8193 108.242 14.5644 108.437 14.4386L107.477 12.9548ZM106.182 14.6763C105.886 15.4169 105.765 16.3712 105.765 17.4787H107.533C107.533 16.4655 107.648 15.7703 107.823 15.3327L106.182 14.6763ZM105.765 17.4787C105.765 18.2234 105.872 18.9314 106.093 19.5961L107.77 19.0373C107.615 18.5709 107.533 18.0536 107.533 17.4787H105.765ZM106.093 19.5961C106.298 20.2101 106.545 20.7727 106.839 21.2793L108.368 20.3938C108.143 20.0051 107.942 19.5544 107.77 19.0373L106.093 19.5961ZM106.839 21.2793C107.117 21.7601 107.405 22.1827 107.706 22.5384L109.056 21.3969C108.838 21.14 108.608 20.8085 108.368 20.3938L106.839 21.2793ZM107.73 22.5648C107.998 22.8571 108.237 23.0993 108.442 23.2748L109.592 21.933C109.467 21.8257 109.283 21.6437 109.032 21.3705L107.73 22.5648ZM139.306 36H138.423V36.8836H139.306V36ZM139.306 14.1915H140.19V13.3079H139.306V14.1915ZM133.403 15.1459L132.833 14.4704L132.823 14.4795L133.403 15.1459ZM132.308 18.3624V19.246H133.191V18.3624H132.308ZM131.389 18.3624H130.505V19.246H131.389V18.3624ZM131.636 14.1562L132.46 14.4765L132.463 14.4691L132.465 14.4617L131.636 14.1562ZM132.52 13.0958L132.981 13.8499L132.992 13.8429L132.52 13.0958ZM150.935 12.6717H151.819V11.788H150.935V12.6717ZM150.935 14.1915V15.0752H151.819V14.1915H150.935ZM143.3 14.1915V13.3079H142.417V14.1915H143.3ZM143.3 36V36.8836H144.184V36H143.3ZM140.19 36V14.1915H138.423V36H140.19ZM139.306 13.3079H136.514V15.0752H139.306V13.3079ZM136.514 13.3079C135.057 13.3079 133.794 13.6602 132.834 14.4705L133.973 15.8212C134.521 15.3591 135.332 15.0752 136.514 15.0752V13.3079ZM132.823 14.4795C131.814 15.3583 131.424 16.7403 131.424 18.3624H133.191C133.191 16.9682 133.532 16.2059 133.984 15.8122L132.823 14.4795ZM132.308 17.4787H131.389V19.246H132.308V17.4787ZM132.272 18.3624V15.4993H130.505V18.3624H132.272ZM132.272 15.4993C132.272 15.1337 132.336 14.7949 132.46 14.4765L130.813 13.8359C130.606 14.3658 130.505 14.9225 130.505 15.4993H132.272ZM132.465 14.4617C132.558 14.2089 132.719 14.0099 132.981 13.8498L132.059 12.3418C131.473 12.7001 131.044 13.208 130.807 13.8507L132.465 14.4617ZM132.992 13.8429C133.243 13.684 133.679 13.5553 134.393 13.5553V11.788C133.505 11.788 132.692 11.9421 132.048 12.3487L132.992 13.8429ZM134.393 13.5553H150.935V11.788H134.393V13.5553ZM150.051 12.6717V14.1915H151.819V12.6717H150.051ZM150.935 13.3079H143.3V15.0752H150.935V13.3079ZM142.417 14.1915V36H144.184V14.1915H142.417ZM143.3 35.1164H139.306V36.8836H143.3V35.1164ZM153.621 35.2224L153.148 35.9686L153.158 35.975L153.621 35.2224ZM150.794 32.0766L149.998 32.4604L150.003 32.4718L150.794 32.0766ZM150.794 23.3108L150.003 22.9156L150 22.9214L150.794 23.3108ZM153.621 20.2004L154.084 20.953L154.095 20.9464L153.621 20.2004ZM162.422 20.2004L161.949 20.9465L161.959 20.9529L162.422 20.2004ZM165.215 23.3108L164.419 23.6946L164.423 23.7032L164.427 23.7117L165.215 23.3108ZM165.215 32.0766L164.424 31.6814L164.419 31.6928L165.215 32.0766ZM162.422 35.2224L162.886 35.975L162.896 35.9685L162.422 35.2224ZM160.196 33.9146L160.833 34.5271L160.838 34.5211L160.844 34.5149L160.196 33.9146ZM161.539 31.3343L160.693 31.077L160.691 31.0855L160.688 31.094L161.539 31.3343ZM161.539 24.0531L160.688 24.2934L160.692 24.3045L160.695 24.3156L161.539 24.0531ZM160.196 21.5082L159.547 22.1085L159.553 22.1146L159.559 22.1206L160.196 21.5082ZM155.848 21.5082L155.212 20.8952L155.211 20.8957L155.848 21.5082ZM154.47 24.0531L153.624 23.7958L153.621 23.8078L154.47 24.0531ZM154.47 31.3343L153.619 31.5746L153.622 31.5832L153.624 31.5916L154.47 31.3343ZM155.848 33.9146L155.2 34.5149L155.211 34.5274L155.223 34.5394L155.848 33.9146ZM158.004 35.4698C156.441 35.4698 155.147 35.1238 154.084 34.4698L153.158 35.975C154.546 36.829 156.174 37.2371 158.004 37.2371V35.4698ZM154.095 34.4763C153.007 33.7862 152.173 32.8599 151.584 31.6814L150.003 32.4718C150.734 33.9324 151.785 35.1034 153.148 35.9685L154.095 34.4763ZM151.59 31.6928C151.016 30.5038 150.723 29.1758 150.723 27.6937H148.956C148.956 29.4163 149.298 31.0102 149.998 32.4604L151.59 31.6928ZM150.723 27.6937C150.723 26.1856 151.017 24.8605 151.587 23.7002L150 22.9214C149.298 24.3531 148.956 25.9499 148.956 27.6937H150.723ZM151.584 23.706C152.172 22.5297 153.003 21.6184 154.084 20.9529L153.158 19.4478C151.789 20.2904 150.735 21.4527 150.003 22.9156L151.584 23.706ZM154.095 20.9464C155.156 20.273 156.446 19.9176 158.004 19.9176V18.1503C156.169 18.1503 154.537 18.5725 153.148 19.4543L154.095 20.9464ZM158.004 19.9176C159.588 19.9176 160.89 20.2742 161.949 20.9464L162.896 19.4543C161.505 18.5713 159.861 18.1503 158.004 18.1503V19.9176ZM161.959 20.9529C163.038 21.6167 163.855 22.5243 164.419 23.6946L166.011 22.927C165.303 21.4582 164.258 20.2921 162.886 19.4478L161.959 20.9529ZM164.427 23.7117C165.017 24.8695 165.321 26.1905 165.321 27.6937H167.088C167.088 25.9451 166.732 24.3441 166.002 22.9099L164.427 23.7117ZM165.321 27.6937C165.321 29.1709 165.018 30.4949 164.424 31.6814L166.005 32.4718C166.731 31.0192 167.088 29.4212 167.088 27.6937H165.321ZM164.419 31.6928C163.853 32.8654 163.034 33.7879 161.949 34.4763L162.896 35.9685C164.262 35.1017 165.304 33.927 166.011 32.4604L164.419 31.6928ZM161.959 34.4698C160.898 35.1227 159.593 35.4698 158.004 35.4698V37.2371C159.856 37.2371 161.496 36.8302 162.886 35.975L161.959 34.4698ZM158.004 35.7172C159.109 35.7172 160.072 35.318 160.833 34.5271L159.559 33.3021C159.141 33.7365 158.643 33.9499 158.004 33.9499V35.7172ZM160.844 34.5149C161.552 33.7504 162.056 32.7541 162.389 31.5746L160.688 31.094C160.409 32.0825 160.018 32.8064 159.547 33.3142L160.844 34.5149ZM162.384 31.5916C162.744 30.4105 162.917 29.1083 162.917 27.6937H161.15C161.15 28.9653 160.994 30.0903 160.693 31.077L162.384 31.5916ZM162.917 27.6937C162.917 26.2577 162.744 24.9529 162.383 23.7906L160.695 24.3156C160.993 25.274 161.15 26.3963 161.15 27.6937H162.917ZM162.389 23.8127C162.056 22.6329 161.55 21.6415 160.833 20.8957L159.559 22.1206C160.02 22.6002 160.409 23.3054 160.688 24.2934L162.389 23.8127ZM160.844 20.9078C160.087 20.0898 159.121 19.6702 158.004 19.6702V21.4375C158.631 21.4375 159.126 21.654 159.547 22.1085L160.844 20.9078ZM158.004 19.6702C156.921 19.6702 155.978 20.0997 155.212 20.8952L156.485 22.1211C156.944 21.6442 157.438 21.4375 158.004 21.4375V19.6702ZM155.211 20.8957C154.499 21.6364 153.982 22.6211 153.624 23.7958L155.315 24.3103C155.617 23.3171 156.019 22.6052 156.485 22.1206L155.211 20.8957ZM153.621 23.8078C153.287 24.9642 153.126 26.2629 153.126 27.6937H154.894C154.894 26.3911 155.04 25.2627 155.319 24.2983L153.621 23.8078ZM153.126 27.6937C153.126 29.103 153.287 30.3992 153.619 31.5746L155.32 31.094C155.039 30.1016 154.894 28.9707 154.894 27.6937H153.126ZM153.624 31.5916C153.982 32.7657 154.496 33.7554 155.2 34.5149L156.496 33.3142C156.022 32.8013 155.617 32.0709 155.315 31.077L153.624 31.5916ZM155.223 34.5394C155.992 35.3085 156.932 35.7172 158.004 35.7172V33.9499C157.427 33.9499 156.929 33.746 156.473 33.2898L155.223 34.5394ZM173.096 35.7526L172.733 36.5584L172.745 36.5638L172.757 36.5688L173.096 35.7526ZM170.904 33.7025L171.679 33.2767L170.904 33.7025ZM169.667 21.2961L168.855 21.6442L168.863 21.662L168.871 21.6794L169.667 21.2961ZM167.299 20.3064H166.415V21.19H167.299V20.3064ZM167.299 19.3874V18.5037H166.415V19.3874H167.299ZM172.884 19.7762L172.441 20.5409L172.449 20.5458L172.458 20.5505L172.884 19.7762ZM173.873 21.1193L173.026 21.3704L173.873 21.1193ZM174.58 32.7835L173.76 33.1117L173.765 33.1233L173.77 33.1349L174.58 32.7835ZM175.782 34.3034L175.317 35.0547L175.325 35.0595L175.333 35.0642L175.782 34.3034ZM178.928 34.4448L179.323 35.2351L179.34 35.2266L179.357 35.2172L178.928 34.4448ZM180.059 33.5965L179.434 32.9716L180.059 33.5965ZM180.837 32.6421L181.589 33.1053L181.72 32.8922V32.6421H180.837ZM180.837 19.3874V18.5037H179.953V19.3874H180.837ZM184.866 19.3874H185.75V18.5037H184.866V19.3874ZM184.866 36V36.8836H185.75V36H184.866ZM182.356 36L181.671 36.5578L181.936 36.8836H182.356V36ZM181.119 34.4801L181.805 33.9223L181.539 33.5965H181.119V34.4801ZM180.943 34.4801V33.5965H180.563L180.302 33.8715L180.943 34.4801ZM179.14 35.7879L179.535 36.5783L179.545 36.5734L179.555 36.5683L179.14 35.7879ZM176.454 35.4698C175.273 35.4698 174.273 35.2839 173.434 34.9363L172.757 36.5688C173.851 37.0224 175.09 37.2371 176.454 37.2371V35.4698ZM173.458 34.9468C172.698 34.6046 172.109 34.0586 171.679 33.2767L170.13 34.1284C170.737 35.2315 171.608 36.0522 172.733 36.5584L173.458 34.9468ZM171.679 33.2767C171.258 32.5115 171.01 31.4151 171.01 29.9205H169.243C169.243 31.5834 169.514 33.0084 170.13 34.1284L171.679 33.2767ZM171.01 29.9205V23.841H169.243V29.9205H171.01ZM171.01 23.841C171.01 22.7087 170.849 21.7133 170.463 20.9127L168.871 21.6794C169.098 22.1513 169.243 22.8526 169.243 23.841H171.01ZM170.479 20.948C169.994 19.8155 168.872 19.4227 167.653 19.4227V21.19C168.554 21.19 168.775 21.4571 168.855 21.6442L170.479 20.948ZM167.653 19.4227H167.299V21.19H167.653V19.4227ZM168.183 20.3064V19.3874H166.415V20.3064H168.183ZM167.299 20.271H170.975V18.5037H167.299V20.271ZM170.975 20.271C171.728 20.271 172.185 20.3929 172.441 20.5409L173.326 19.0115C172.687 18.6411 171.872 18.5037 170.975 18.5037V20.271ZM172.458 20.5505C172.68 20.6725 172.887 20.902 173.026 21.3704L174.721 20.8683C174.482 20.0642 174.03 19.3983 173.31 19.0019L172.458 20.5505ZM173.026 21.3704C173.179 21.8854 173.273 22.6928 173.273 23.841H175.04C175.04 22.6327 174.945 21.6258 174.721 20.8683L173.026 21.3704ZM173.273 23.841V29.9205H175.04V23.841H173.273ZM173.273 29.9205C173.273 31.1771 173.418 32.2577 173.76 33.1117L175.401 32.4553C175.177 31.8955 175.04 31.0674 175.04 29.9205H173.273ZM173.77 33.1349C174.125 33.9544 174.626 34.6271 175.317 35.0547L176.247 33.5521C175.948 33.367 175.649 33.0265 175.391 32.4322L173.77 33.1349ZM175.333 35.0642C175.995 35.4555 176.729 35.6465 177.514 35.6465V33.8792C177.027 33.8792 176.606 33.7639 176.232 33.5426L175.333 35.0642ZM177.514 35.6465C178.157 35.6465 178.765 35.5141 179.323 35.2351L178.533 33.6544C178.242 33.7996 177.908 33.8792 177.514 33.8792V35.6465ZM179.357 35.2172C179.85 34.9433 180.294 34.6115 180.684 34.2213L179.434 32.9716C179.165 33.2412 178.854 33.475 178.499 33.6723L179.357 35.2172ZM180.684 34.2213C181.049 33.8562 181.356 33.4846 181.589 33.1053L180.084 32.179C179.94 32.4123 179.729 32.6769 179.434 32.9716L180.684 34.2213ZM181.72 32.6421V19.3874H179.953V32.6421H181.72ZM180.837 20.271H184.866V18.5037H180.837V20.271ZM183.982 19.3874V36H185.75V19.3874H183.982ZM184.866 35.1164H182.356V36.8836H184.866V35.1164ZM183.042 35.4422L181.805 33.9223L180.434 35.0379L181.671 36.5578L183.042 35.4422ZM181.119 33.5965H180.943V35.3638H181.119V33.5965ZM180.302 33.8715C179.937 34.2559 179.42 34.6385 178.725 35.0076L179.555 36.5683C180.368 36.1362 181.053 35.6469 181.583 35.0887L180.302 33.8715ZM178.745 34.9976C178.138 35.3007 177.384 35.4698 176.454 35.4698V37.2371C177.597 37.2371 178.633 37.0291 179.535 36.5783L178.745 34.9976ZM189.982 36H189.098V36.8836H189.982V36ZM189.558 21.2961L188.745 21.6442L188.75 21.655L189.558 21.2961ZM187.189 20.3064H186.306V21.19H187.189V20.3064ZM187.189 19.3874V18.5037H186.306V19.3874H187.189ZM192.315 19.7409L191.903 20.5228L191.927 20.5355L191.952 20.5467L192.315 19.7409ZM193.375 20.8012L192.577 21.1811L193.083 22.2432L193.962 21.4617L193.375 20.8012ZM195.142 19.6348L194.728 18.8545L195.142 19.6348ZM199.101 19.2107L198.852 20.0584L198.88 20.0668L198.909 20.0733L199.101 19.2107ZM200.161 19.6702L199.631 20.3771L199.651 20.3918L199.671 20.4054L200.161 19.6702ZM200.974 20.5538L200.195 20.9697L200.201 20.981L200.207 20.9922L200.974 20.5538ZM201.399 21.2607L201.926 21.9695L202.599 21.4685L202.134 20.7706L201.399 21.2607ZM199.737 22.4978L199.018 23.0115L199.542 23.7449L200.265 23.2066L199.737 22.4978ZM198.712 21.6495L198.27 22.4143L198.285 22.4232L198.301 22.4315L198.712 21.6495ZM195.213 21.6495L194.845 20.8462L194.838 20.8493L194.832 20.8524L195.213 21.6495ZM193.905 22.6392L193.223 22.0775L192.995 22.3547L193.025 22.7126L193.905 22.6392ZM193.976 23.4522L193.096 23.5322L193.097 23.5401L193.976 23.4522ZM194.011 36V36.8836H194.895V36H194.011ZM190.865 36V23.841H189.098V36H190.865ZM190.865 23.841C190.865 22.7154 190.717 21.7298 190.365 20.9372L188.75 21.655C188.963 22.1348 189.098 22.8458 189.098 23.841H190.865ZM190.37 20.948C189.884 19.8155 188.762 19.4227 187.543 19.4227V21.19C188.445 21.19 188.665 21.4571 188.745 21.6442L190.37 20.948ZM187.543 19.4227H187.189V21.19H187.543V19.4227ZM188.073 20.3064V19.3874H186.306V20.3064H188.073ZM187.189 20.271H190.406V18.5037H187.189V20.271ZM190.406 20.271C191.168 20.271 191.638 20.3834 191.903 20.5228L192.726 18.9589C192.096 18.6271 191.294 18.5037 190.406 18.5037V20.271ZM191.952 20.5467C192.22 20.6674 192.426 20.863 192.577 21.1811L194.173 20.4213C193.853 19.7498 193.352 19.2385 192.677 18.935L191.952 20.5467ZM193.962 21.4617C194.314 21.1484 194.837 20.7976 195.557 20.4152L194.728 18.8545C193.939 19.2732 193.284 19.7 192.788 20.1408L193.962 21.4617ZM195.557 20.4152C196.159 20.0955 196.906 19.9176 197.829 19.9176V18.1503C196.678 18.1503 195.634 18.373 194.728 18.8545L195.557 20.4152ZM197.829 19.9176C198.198 19.9176 198.538 19.9661 198.852 20.0584L199.35 18.3629C198.863 18.2196 198.355 18.1503 197.829 18.1503V19.9176ZM198.909 20.0733C199.238 20.1464 199.469 20.2556 199.631 20.3771L200.692 18.9632C200.288 18.6606 199.812 18.4635 199.293 18.3481L198.909 20.0733ZM199.671 20.4054C199.911 20.5652 200.079 20.7527 200.195 20.9697L201.754 20.138C201.493 19.648 201.119 19.2465 200.652 18.9349L199.671 20.4054ZM200.207 20.9922C200.397 21.3237 200.551 21.5822 200.663 21.7509L202.134 20.7706C202.058 20.6565 201.929 20.4437 201.742 20.1154L200.207 20.9922ZM200.871 20.552L199.21 21.7891L200.265 23.2066L201.926 21.9695L200.871 20.552ZM200.456 21.9842C200.123 21.5177 199.664 21.1519 199.124 20.8676L198.301 22.4315C198.656 22.6185 198.88 22.8181 199.018 23.0115L200.456 21.9842ZM199.155 20.8848C198.555 20.5374 197.88 20.3771 197.157 20.3771V22.1444C197.613 22.1444 197.974 22.2433 198.27 22.4143L199.155 20.8848ZM197.157 20.3771C196.321 20.3771 195.544 20.5257 194.845 20.8462L195.581 22.4528C196.013 22.255 196.532 22.1444 197.157 22.1444V20.3771ZM194.832 20.8524C194.192 21.1584 193.647 21.5629 193.223 22.0775L194.587 23.201C194.823 22.9144 195.15 22.659 195.594 22.4467L194.832 20.8524ZM193.025 22.7126C193.048 22.9974 193.072 23.2706 193.096 23.5322L194.856 23.3722C194.833 23.1154 194.809 22.8466 194.786 22.5658L193.025 22.7126ZM193.097 23.5401C193.118 23.7579 193.128 23.9271 193.128 24.0531H194.895C194.895 23.8492 194.88 23.6177 194.855 23.3643L193.097 23.5401ZM193.128 24.0531V36H194.895V24.0531H193.128ZM194.011 35.1164H189.982V36.8836H194.011V35.1164Z" fill="#EEF20C" mask="url(#path-1-outside-1_1630_89832)"/>
<path d="M54.9794 65.2474C54.6377 65.2474 54.3726 65.1473 54.1841 64.947C53.9956 64.7467 53.9013 64.4875 53.9013 64.1694C53.9013 63.8513 53.9956 63.5921 54.1841 63.3918C54.3726 63.1915 54.6377 63.0913 54.9794 63.0913C55.3211 63.0913 55.5861 63.1915 55.7747 63.3918C55.9632 63.5921 56.0574 63.8513 56.0574 64.1694C56.0574 64.4875 55.9632 64.7467 55.7747 64.947C55.5861 65.1473 55.3211 65.2474 54.9794 65.2474ZM58.9316 65.2474C58.59 65.2474 58.3249 65.1473 58.1363 64.947C57.9478 64.7467 57.8536 64.4875 57.8536 64.1694C57.8536 63.8513 57.9478 63.5921 58.1363 63.3918C58.3249 63.1915 58.59 63.0913 58.9316 63.0913C59.2733 63.0913 59.5384 63.1915 59.7269 63.3918C59.9154 63.5921 60.0097 63.8513 60.0097 64.1694C60.0097 64.4875 59.9154 64.7467 59.7269 64.947C59.5384 65.1473 59.2733 65.2474 58.9316 65.2474ZM62.8839 65.2474C62.5422 65.2474 62.2771 65.1473 62.0886 64.947C61.9001 64.7467 61.8058 64.4875 61.8058 64.1694C61.8058 63.8513 61.9001 63.5921 62.0886 63.3918C62.2771 63.1915 62.5422 63.0913 62.8839 63.0913C63.2256 63.0913 63.4907 63.1915 63.6792 63.3918C63.8677 63.5921 63.9619 63.8513 63.9619 64.1694C63.9619 64.4875 63.8677 64.7467 63.6792 64.947C63.4907 65.1473 63.2256 65.2474 62.8839 65.2474ZM66.3459 65V55.6333C66.3459 55.1031 66.2693 54.679 66.1161 54.3609C65.9747 54.031 65.6389 53.866 65.1088 53.866H64.932V53.3358H69.7921C70.1102 53.3358 70.4754 53.3594 70.8878 53.4065C71.3002 53.4419 71.7184 53.5243 72.1426 53.6539C72.5785 53.7835 72.9791 53.978 73.3444 54.2372C73.7096 54.4964 74.0042 54.8439 74.228 55.2799C74.4519 55.704 74.5638 56.2401 74.5638 56.8881C74.5638 57.5008 74.4519 58.0133 74.228 58.4257C74.0042 58.8262 73.7155 59.1502 73.362 59.3977C73.0204 59.6451 72.6551 59.8336 72.2663 59.9632C71.8775 60.0928 71.5064 60.1812 71.1529 60.2283C70.8112 60.2636 70.5344 60.2813 70.3223 60.2813H68.6434V65H66.3459ZM68.6434 59.5744H69.7037C70.0101 59.5744 70.3046 59.5332 70.5874 59.4507C70.8701 59.3682 71.1235 59.2209 71.3473 59.0089C71.5712 58.7968 71.7479 58.514 71.8775 58.1606C72.0189 57.7953 72.0896 57.3417 72.0896 56.7997C72.0896 56.2578 72.0189 55.81 71.8775 55.4566C71.7479 55.0913 71.5712 54.8086 71.3473 54.6083C71.1352 54.3962 70.8937 54.2489 70.6227 54.1665C70.3517 54.084 70.0749 54.0428 69.7921 54.0428C69.6625 54.0428 69.5034 54.0486 69.3149 54.0604C69.1382 54.0722 68.9143 54.1076 68.6434 54.1665V59.5744ZM78.2457 65.1767C77.7509 65.1767 77.3149 65.1178 76.9379 65C76.5727 64.8822 76.2605 64.7231 76.0012 64.5228C75.7538 64.3108 75.5653 64.0574 75.4357 63.7629C75.3061 63.4683 75.2413 63.1443 75.2413 62.7909C75.2413 62.2253 75.3709 61.7482 75.6301 61.3594C75.9011 60.9588 76.3842 60.6583 77.0793 60.458C77.7744 60.246 78.7523 60.1399 80.013 60.1399H80.2781C80.2781 59.433 80.2133 58.8734 80.0837 58.461C79.9541 58.0486 79.7597 57.7541 79.5005 57.5773C79.2531 57.4006 78.9526 57.3123 78.5992 57.3123C78.1986 57.3123 77.8392 57.4124 77.5211 57.6127C77.203 57.813 76.9733 58.243 76.8319 58.9028H75.8599C75.8599 58.5965 75.8775 58.2843 75.9129 57.9662C75.96 57.648 76.0896 57.3712 76.3017 57.1355C76.5138 56.8999 76.8613 56.7408 77.3444 56.6584C77.8392 56.5641 78.3753 56.517 78.9526 56.517C79.53 56.517 80.0425 56.5936 80.4902 56.7467C80.9379 56.8999 81.3149 57.1296 81.6213 57.436C81.9394 57.7423 82.175 58.1311 82.3282 58.6024C82.4931 59.0619 82.5756 59.6038 82.5756 60.2283V65H81.0734L80.4548 64.2047H80.3665C80.2133 64.4521 79.9541 64.676 79.5889 64.8763C79.2236 65.0766 78.7759 65.1767 78.2457 65.1767ZM78.7759 64.2931C79.1647 64.2931 79.4887 64.1635 79.7479 63.9043C80.0071 63.6451 80.1839 63.3918 80.2781 63.1443V60.9352H80.013C79.1647 60.9352 78.552 61.0884 78.175 61.3947C77.8098 61.701 77.6272 62.1664 77.6272 62.7909C77.6272 63.2857 77.7273 63.6627 77.9276 63.9219C78.1397 64.1694 78.4224 64.2931 78.7759 64.2931ZM88.374 65.1767C87.4314 65.1767 86.642 64.9823 86.0058 64.5935C85.3814 64.1929 84.9101 63.6627 84.592 63.003C84.2856 62.3432 84.1325 61.6245 84.1325 60.8468C84.1325 60.0575 84.2856 59.3388 84.592 58.6907C84.9101 58.031 85.3814 57.5067 86.0058 57.1179C86.642 56.7173 87.4314 56.517 88.374 56.517C89.0456 56.517 89.6111 56.5641 90.0706 56.6584C90.5419 56.7526 90.8894 56.9117 91.1133 57.1355C91.3372 57.3594 91.4668 57.6598 91.5021 58.0368C91.5375 58.4139 91.5551 58.9382 91.5551 59.6097H91.0249C90.9778 58.8557 90.7422 58.2843 90.318 57.8955C89.9056 57.5067 89.346 57.3123 88.6391 57.3123C88.2149 57.3123 87.8438 57.4419 87.5257 57.7011C87.2076 57.9485 86.9602 58.3373 86.7834 58.8675C86.6067 59.3859 86.5183 60.0457 86.5183 60.8468C86.5183 61.6245 86.6008 62.2784 86.7657 62.8086C86.9307 63.327 87.1722 63.7217 87.4903 63.9926C87.8202 64.2518 88.2326 64.3814 88.7274 64.3814C89.3401 64.3814 89.835 64.2401 90.212 63.9573C90.6008 63.6745 90.9484 63.327 91.2547 62.9146L91.8025 63.3211C91.6376 63.5803 91.4137 63.8571 91.131 64.1517C90.86 64.4345 90.5006 64.676 90.0529 64.8763C89.617 65.0766 89.0573 65.1767 88.374 65.1767ZM99.9514 65.1767C99.4566 65.1767 98.9912 65.0766 98.5553 64.8763C98.1194 64.6642 97.707 64.2931 97.3182 63.7629L95.6216 61.5361V65H93.3241V55.6333C93.3241 55.1031 93.2475 54.679 93.0943 54.3609C92.9529 54.031 92.6172 53.866 92.087 53.866H91.9102V53.3358H94.031C94.4434 53.3358 94.7615 53.4065 94.9853 53.5479C95.221 53.6893 95.3859 53.9249 95.4802 54.2548C95.5744 54.5847 95.6216 55.0442 95.6216 55.6333V60.6701L97.76 58.0545C98.1252 57.6186 98.4846 57.2828 98.8381 57.0472C99.1915 56.8115 99.6805 56.6937 100.305 56.6937H100.658V57.1532C100.305 57.1532 99.9868 57.2239 99.704 57.3653C99.4213 57.5067 99.1503 57.7305 98.8911 58.0368L97.1768 60.1223L99.5273 63.2327C99.8336 63.6451 100.122 63.9573 100.393 64.1694C100.664 64.3814 100.923 64.5169 101.171 64.5758V65C101.077 65.0471 100.906 65.0884 100.658 65.1237C100.411 65.1591 100.175 65.1767 99.9514 65.1767ZM104.703 65.1767C104.209 65.1767 103.773 65.1178 103.396 65C103.03 64.8822 102.718 64.7231 102.459 64.5228C102.212 64.3108 102.023 64.0574 101.893 63.7629C101.764 63.4683 101.699 63.1443 101.699 62.7909C101.699 62.2253 101.829 61.7482 102.088 61.3594C102.359 60.9588 102.842 60.6583 103.537 60.458C104.232 60.246 105.21 60.1399 106.471 60.1399H106.736C106.736 59.433 106.671 58.8734 106.541 58.461C106.412 58.0486 106.217 57.7541 105.958 57.5773C105.711 57.4006 105.41 57.3123 105.057 57.3123C104.656 57.3123 104.297 57.4124 103.979 57.6127C103.661 57.813 103.431 58.243 103.29 58.9028H102.318C102.318 58.5965 102.335 58.2843 102.371 57.9662C102.418 57.648 102.547 57.3712 102.759 57.1355C102.971 56.8999 103.319 56.7408 103.802 56.6584C104.297 56.5641 104.833 56.517 105.41 56.517C105.988 56.517 106.5 56.5936 106.948 56.7467C107.396 56.8999 107.773 57.1296 108.079 57.436C108.397 57.7423 108.633 58.1311 108.786 58.6024C108.951 59.0619 109.033 59.6038 109.033 60.2283V65H107.531L106.913 64.2047H106.824C106.671 64.4521 106.412 64.676 106.047 64.8763C105.681 65.0766 105.234 65.1767 104.703 65.1767ZM105.234 64.2931C105.622 64.2931 105.946 64.1635 106.206 63.9043C106.465 63.6451 106.642 63.3918 106.736 63.1443V60.9352H106.471C105.622 60.9352 105.01 61.0884 104.633 61.3947C104.267 61.701 104.085 62.1664 104.085 62.7909C104.085 63.2857 104.185 63.6627 104.385 63.9219C104.597 64.1694 104.88 64.2931 105.234 64.2931ZM114.531 68.5346C113.707 68.5346 112.964 68.4462 112.304 68.2695C111.656 68.1046 111.144 67.8218 110.767 67.4212C110.39 67.0206 110.201 66.4786 110.201 65.7953C110.201 65.3711 110.319 65.0059 110.555 64.6996C110.802 64.3932 111.109 64.1399 111.474 63.9396C111.839 63.7393 112.21 63.5921 112.587 63.4978C112.363 63.4271 112.175 63.3152 112.022 63.162C111.869 63.0088 111.792 62.7968 111.792 62.5258C111.792 62.3255 111.851 62.1546 111.969 62.0133C112.086 61.8601 112.263 61.7364 112.499 61.6421C112.004 61.4654 111.586 61.165 111.244 60.7408C110.902 60.3049 110.732 59.8159 110.732 59.274C110.732 58.5906 110.902 58.0486 111.244 57.648C111.586 57.2475 112.039 56.9588 112.605 56.7821C113.182 56.6053 113.824 56.517 114.531 56.517H118.243V56.9941L116.652 57.2062C117.147 57.3947 117.547 57.6834 117.854 58.0722C118.172 58.461 118.331 58.8616 118.331 59.274C118.331 59.9455 118.172 60.4816 117.854 60.8822C117.547 61.2828 117.106 61.5714 116.528 61.7482C115.963 61.9131 115.297 61.9956 114.531 61.9956C114.001 61.9956 113.571 62.025 113.241 62.084C112.923 62.1429 112.764 62.2901 112.764 62.5258C112.764 62.7261 112.923 62.8557 113.241 62.9146C113.571 62.9617 114.001 62.9912 114.531 63.003C115.332 63.0147 116.057 63.1267 116.705 63.3387C117.365 63.539 117.889 63.8454 118.278 64.2577C118.667 64.6583 118.861 65.1708 118.861 65.7953C118.861 66.4786 118.673 67.0206 118.296 67.4212C117.919 67.8218 117.4 68.1046 116.74 68.2695C116.092 68.4462 115.356 68.5346 114.531 68.5346ZM114.531 67.7393C115.12 67.7393 115.592 67.5803 115.945 67.2621C116.299 66.9558 116.475 66.4669 116.475 65.7953C116.475 65.2651 116.31 64.8292 115.98 64.4875C115.651 64.1458 115.215 63.9219 114.673 63.8159L113.842 63.7275C113.453 63.8925 113.147 64.1399 112.923 64.4698C112.699 64.7879 112.587 65.2297 112.587 65.7953C112.587 66.4669 112.764 66.9558 113.117 67.2621C113.471 67.5803 113.942 67.7393 114.531 67.7393ZM114.531 61.2887C114.944 61.2887 115.279 61.1355 115.539 60.8292C115.81 60.5228 115.945 60.0044 115.945 59.274C115.945 58.6024 115.81 58.0958 115.539 57.7541C115.279 57.4006 114.944 57.2239 114.531 57.2239C114.119 57.2239 113.777 57.3888 113.506 57.7187C113.247 58.0368 113.117 58.5553 113.117 59.274C113.117 60.0044 113.247 60.5228 113.506 60.8292C113.777 61.1355 114.119 61.2887 114.531 61.2887ZM123.923 65.1767C123.099 65.1767 122.38 64.9882 121.767 64.6112C121.155 64.2342 120.683 63.7217 120.353 63.0736C120.023 62.4139 119.859 61.6716 119.859 60.8468C119.859 59.9043 120.029 59.1149 120.371 58.4787C120.713 57.8307 121.178 57.3417 121.767 57.0118C122.356 56.6819 123.016 56.517 123.747 56.517C124.477 56.517 125.137 56.6642 125.726 56.9588C126.315 57.2533 126.78 57.6657 127.122 58.1959C127.464 58.7261 127.635 59.3446 127.635 60.0516L127.564 61.165H122.244C122.244 62.3314 122.421 63.162 122.775 63.6569C123.14 64.1399 123.611 64.3814 124.188 64.3814C124.801 64.3814 125.296 64.2401 125.673 63.9573C126.062 63.6745 126.409 63.327 126.716 62.9146L127.264 63.3211C127.099 63.5803 126.875 63.8571 126.592 64.1517C126.321 64.4345 125.968 64.676 125.532 64.8763C125.107 65.0766 124.571 65.1767 123.923 65.1767ZM122.244 60.3697H125.249C125.249 59.2033 125.107 58.4021 124.825 57.9662C124.554 57.5302 124.194 57.3123 123.747 57.3123C123.487 57.3123 123.24 57.4065 123.004 57.595C122.78 57.7835 122.598 58.1016 122.456 58.5494C122.315 58.9853 122.244 59.5921 122.244 60.3697ZM132.244 65.1767C131.513 65.1767 130.912 65.1119 130.441 64.9823C129.981 64.8527 129.634 64.676 129.398 64.4521C129.186 64.2518 129.062 63.9632 129.027 63.5862C128.992 63.2091 128.974 62.7968 128.974 62.3491H129.593C129.687 62.9146 129.917 63.3976 130.282 63.7982C130.647 64.187 131.183 64.3814 131.89 64.3814C132.55 64.3814 133.009 64.2695 133.269 64.0457C133.528 63.81 133.657 63.5214 133.657 63.1797C133.657 62.838 133.504 62.567 133.198 62.3667C132.892 62.1546 132.515 61.9485 132.067 61.7482L131.148 61.3594C130.441 61.053 129.887 60.7055 129.487 60.3167C129.086 59.9279 128.886 59.4448 128.886 58.8675C128.886 58.1016 129.204 57.5184 129.84 57.1179C130.476 56.7173 131.277 56.517 132.244 56.517C132.974 56.517 133.569 56.5818 134.029 56.7114C134.5 56.841 134.853 57.0177 135.089 57.2416C135.301 57.4419 135.425 57.7305 135.46 58.1075C135.495 58.4846 135.513 58.8969 135.513 59.3446H134.895C134.8 58.7791 134.571 58.3019 134.205 57.9131C133.84 57.5125 133.304 57.3123 132.597 57.3123C132.067 57.3123 131.684 57.4301 131.448 57.6657C131.213 57.8896 131.095 58.1723 131.095 58.514C131.095 58.8321 131.207 59.0913 131.431 59.2916C131.654 59.4801 131.961 59.6569 132.35 59.8218L133.41 60.2636C134.223 60.6053 134.836 60.9647 135.248 61.3417C135.66 61.7069 135.867 62.2018 135.867 62.8262C135.867 63.5921 135.525 64.1753 134.842 64.5758C134.158 64.9764 133.292 65.1767 132.244 65.1767ZM138.443 65.2474C138.101 65.2474 137.836 65.1473 137.648 64.947C137.459 64.7467 137.365 64.4875 137.365 64.1694C137.365 63.8513 137.459 63.5921 137.648 63.3918C137.836 63.1915 138.101 63.0913 138.443 63.0913C138.784 63.0913 139.05 63.1915 139.238 63.3918C139.427 63.5921 139.521 63.8513 139.521 64.1694C139.521 64.4875 139.427 64.7467 139.238 64.947C139.05 65.1473 138.784 65.2474 138.443 65.2474ZM142.395 65.2474C142.053 65.2474 141.788 65.1473 141.6 64.947C141.411 64.7467 141.317 64.4875 141.317 64.1694C141.317 63.8513 141.411 63.5921 141.6 63.3918C141.788 63.1915 142.053 63.0913 142.395 63.0913C142.737 63.0913 143.002 63.1915 143.19 63.3918C143.379 63.5921 143.473 63.8513 143.473 64.1694C143.473 64.4875 143.379 64.7467 143.19 64.947C143.002 65.1473 142.737 65.2474 142.395 65.2474ZM146.347 65.2474C146.006 65.2474 145.741 65.1473 145.552 64.947C145.364 64.7467 145.269 64.4875 145.269 64.1694C145.269 63.8513 145.364 63.5921 145.552 63.3918C145.741 63.1915 146.006 63.0913 146.347 63.0913C146.689 63.0913 146.954 63.1915 147.143 63.3918C147.331 63.5921 147.425 63.8513 147.425 64.1694C147.425 64.4875 147.331 64.7467 147.143 64.947C146.954 65.1473 146.689 65.2474 146.347 65.2474Z" fill="url(#paint1_linear_1630_89832)"/>
<defs>
<linearGradient id="paint0_linear_1630_89832" x1="112.961" y1="43.6207" x2="111.608" y2="10.4591" gradientUnits="userSpaceOnUse">
<stop stop-color="#03D600"/>
<stop offset="1" stop-color="#015F00"/>
</linearGradient>
<linearGradient id="paint1_linear_1630_89832" x1="103.4" y1="66.8947" x2="102.273" y2="52.947" gradientUnits="userSpaceOnUse">
<stop stop-color="#E40301"/>
<stop offset="1" stop-color="#7E0201"/>
</linearGradient>
</defs>
</svg>
