<svg width="172" height="72" viewBox="0 0 172 72" fill="none" xmlns="http://www.w3.org/2000/svg">
<path d="M26.8693 9.90909H33.3182L41.9545 30.9886H42.2955L50.9318 9.90909H57.3807V39H52.3239V19.0142H52.054L44.0142 38.9148H40.2358L32.196 18.9716H31.9261V39H26.8693V9.90909ZM66.8551 39H61.2301L71.4716 9.90909H77.9773L88.233 39H82.608L74.8381 15.875H74.6108L66.8551 39ZM67.0398 27.5938H82.3807V31.8267H67.0398V27.5938ZM92.0646 39V9.90909H97.3345V22.2244H110.815V9.90909H116.099V39H110.815V26.642H97.3345V39H92.0646ZM125.566 39H119.941L130.183 9.90909H136.688L146.944 39H141.319L133.549 15.875H133.322L125.566 39ZM125.751 27.5938H141.092V31.8267H125.751V27.5938Z" fill="#9D005B"/>
<path d="M0.795455 54.6634V52.4545H12.4006V54.6634H7.90483V67H5.29119V54.6634H0.795455ZM17.7006 67.2131C16.6353 67.2131 15.712 66.9787 14.9308 66.5099C14.1495 66.0412 13.5434 65.3854 13.1126 64.5426C12.6864 63.6998 12.4734 62.715 12.4734 61.5881C12.4734 60.4612 12.6864 59.474 13.1126 58.6264C13.5434 57.7789 14.1495 57.1207 14.9308 56.652C15.712 56.1832 16.6353 55.9489 17.7006 55.9489C18.766 55.9489 19.6893 56.1832 20.4705 56.652C21.2518 57.1207 21.8555 57.7789 22.2816 58.6264C22.7125 59.474 22.9279 60.4612 22.9279 61.5881C22.9279 62.715 22.7125 63.6998 22.2816 64.5426C21.8555 65.3854 21.2518 66.0412 20.4705 66.5099C19.6893 66.9787 18.766 67.2131 17.7006 67.2131ZM17.7148 65.1534C18.2925 65.1534 18.7754 64.9948 19.1637 64.6776C19.552 64.3556 19.8408 63.9247 20.0302 63.3849C20.2243 62.8452 20.3214 62.2438 20.3214 61.581C20.3214 60.9134 20.2243 60.3097 20.0302 59.7699C19.8408 59.2254 19.552 58.7921 19.1637 58.4702C18.7754 58.1482 18.2925 57.9872 17.7148 57.9872C17.123 57.9872 16.6306 58.1482 16.2376 58.4702C15.8493 58.7921 15.5581 59.2254 15.364 59.7699C15.1746 60.3097 15.0799 60.9134 15.0799 61.581C15.0799 62.2438 15.1746 62.8452 15.364 63.3849C15.5581 63.9247 15.8493 64.3556 16.2376 64.6776C16.6306 64.9948 17.123 65.1534 17.7148 65.1534ZM32.0632 62.4119V56.0909H34.6342V67H32.1413V65.0611H32.0277C31.7815 65.6719 31.3767 66.1714 30.8132 66.5597C30.2545 66.9479 29.5656 67.142 28.7464 67.142C28.0315 67.142 27.3994 66.9834 26.8501 66.6662C26.3056 66.3442 25.8795 65.8778 25.5717 65.267C25.264 64.6515 25.1101 63.9081 25.1101 63.0369V56.0909H27.6811V62.6392C27.6811 63.3305 27.8705 63.8797 28.2493 64.2869C28.6281 64.6941 29.1252 64.8977 29.7408 64.8977C30.1196 64.8977 30.4865 64.8054 30.8416 64.6207C31.1967 64.4361 31.4879 64.1615 31.7152 63.7969C31.9472 63.4276 32.0632 62.9659 32.0632 62.4119ZM37.2781 67V56.0909H39.771V57.9091H39.8846C40.0835 57.2794 40.4244 56.794 40.9073 56.4531C41.395 56.1075 41.9513 55.9347 42.5763 55.9347C42.7184 55.9347 42.877 55.9418 43.0522 55.956C43.2321 55.9654 43.3813 55.982 43.4996 56.0057V58.3707C43.3907 58.3329 43.2179 58.2997 42.9812 58.2713C42.7492 58.2382 42.5243 58.2216 42.3065 58.2216C41.8377 58.2216 41.4163 58.3234 41.0423 58.527C40.6729 58.7259 40.3817 59.0028 40.1687 59.358C39.9556 59.7131 39.8491 60.1226 39.8491 60.5866V67H37.2781ZM53.8299 58.9744L51.4862 59.2301C51.4199 58.9934 51.3039 58.7708 51.1381 58.5625C50.9772 58.3542 50.7594 58.1861 50.4847 58.0582C50.2101 57.9304 49.8739 57.8665 49.4762 57.8665C48.9412 57.8665 48.4914 57.9825 48.1268 58.2145C47.7669 58.4465 47.5894 58.7472 47.5941 59.1165C47.5894 59.4337 47.7054 59.6918 47.9421 59.8906C48.1836 60.0895 48.5813 60.2528 49.1353 60.3807L50.9961 60.7784C52.0283 61.0009 52.7953 61.3537 53.2972 61.8366C53.8039 62.3196 54.0595 62.9517 54.0643 63.733C54.0595 64.4195 53.8583 65.0256 53.4606 65.5511C53.0676 66.072 52.5207 66.4792 51.82 66.7727C51.1192 67.0663 50.3143 67.2131 49.4052 67.2131C48.07 67.2131 46.9951 66.9337 46.1808 66.375C45.3664 65.8116 44.881 65.0279 44.7248 64.0241L47.2319 63.7827C47.3455 64.2751 47.587 64.6468 47.9563 64.8977C48.3256 65.1487 48.8062 65.2741 49.3981 65.2741C50.0089 65.2741 50.4989 65.1487 50.8683 64.8977C51.2423 64.6468 51.4293 64.3366 51.4293 63.9673C51.4293 63.6548 51.3086 63.3968 51.0671 63.1932C50.8304 62.9896 50.4611 62.8333 49.9592 62.7244L48.0984 62.3338C47.052 62.116 46.2778 61.7491 45.7759 61.233C45.274 60.7121 45.0254 60.054 45.0302 59.2585C45.0254 58.5862 45.2077 58.0038 45.5771 57.5114C45.9511 57.0142 46.4696 56.6307 47.1325 56.3608C47.8001 56.0862 48.5695 55.9489 49.4407 55.9489C50.7191 55.9489 51.7253 56.2211 52.4592 56.7656C53.1978 57.3101 53.6547 58.0464 53.8299 58.9744ZM64.2844 67.2202C63.5932 67.2202 62.9705 67.0971 62.4165 66.8509C61.8673 66.5999 61.4317 66.2306 61.1097 65.7429C60.7925 65.2552 60.6339 64.6539 60.6339 63.9389C60.6339 63.3234 60.7475 62.8144 60.9748 62.4119C61.2021 62.0095 61.5122 61.6875 61.9052 61.446C62.2982 61.2045 62.7409 61.0223 63.2333 60.8991C63.7305 60.7713 64.2442 60.679 64.7745 60.6222C65.4137 60.5559 65.9322 60.4967 66.3299 60.4446C66.7276 60.3878 67.0165 60.3026 67.1964 60.1889C67.381 60.0705 67.4734 59.8883 67.4734 59.642V59.5994C67.4734 59.0644 67.3147 58.6501 66.9975 58.3565C66.6803 58.063 66.2234 57.9162 65.6268 57.9162C64.997 57.9162 64.4975 58.0535 64.1282 58.3281C63.7636 58.6027 63.5174 58.9271 63.3896 59.3011L60.989 58.9602C61.1784 58.2973 61.4909 57.7434 61.9265 57.2983C62.3621 56.8485 62.8948 56.5123 63.5245 56.2898C64.1542 56.0625 64.8503 55.9489 65.6126 55.9489C66.1381 55.9489 66.6613 56.0104 67.1822 56.1335C67.703 56.2566 68.1789 56.4602 68.6097 56.7443C69.0406 57.0237 69.3862 57.4048 69.6467 57.8878C69.9118 58.3707 70.0444 58.9744 70.0444 59.6989V67H67.5728V65.5014H67.4876C67.3313 65.8045 67.1112 66.0885 66.8271 66.3537C66.5477 66.6141 66.195 66.8248 65.7688 66.9858C65.3474 67.142 64.8526 67.2202 64.2844 67.2202ZM64.9521 65.331C65.4682 65.331 65.9156 65.2292 66.2944 65.0256C66.6732 64.8172 66.9644 64.5426 67.168 64.2017C67.3763 63.8608 67.4805 63.4891 67.4805 63.0866V61.8011C67.4 61.8674 67.2627 61.929 67.0685 61.9858C66.8791 62.0426 66.6661 62.0923 66.4293 62.1349C66.1926 62.1776 65.9582 62.2154 65.7262 62.2486C65.4942 62.2817 65.293 62.3101 65.1225 62.3338C64.739 62.3859 64.3957 62.4711 64.0927 62.5895C63.7897 62.7079 63.5505 62.8736 63.3754 63.0866C63.2002 63.295 63.1126 63.5649 63.1126 63.8963C63.1126 64.3698 63.2854 64.7273 63.631 64.9688C63.9767 65.2102 64.417 65.331 64.9521 65.331ZM75.2006 60.608V67H72.6296V56.0909H75.087V57.9446H75.2148C75.4658 57.3338 75.8659 56.8485 76.4151 56.4886C76.9691 56.1288 77.6533 55.9489 78.4677 55.9489C79.2205 55.9489 79.8763 56.1098 80.435 56.4318C80.9985 56.7538 81.4341 57.2202 81.7418 57.831C82.0543 58.4418 82.2082 59.1828 82.2035 60.054V67H79.6325V60.4517C79.6325 59.7225 79.4431 59.152 79.0643 58.7401C78.6902 58.3281 78.1718 58.1222 77.5089 58.1222C77.0591 58.1222 76.659 58.2216 76.3086 58.4205C75.9629 58.6146 75.6907 58.8963 75.4918 59.2656C75.2977 59.6349 75.2006 60.0824 75.2006 60.608ZM88.8654 67.1918C88.0084 67.1918 87.2414 66.9716 86.5643 66.5312C85.8872 66.0909 85.3522 65.4517 84.9592 64.6136C84.5662 63.7756 84.3697 62.7576 84.3697 61.5597C84.3697 60.3475 84.5685 59.3248 84.9663 58.4915C85.3687 57.6534 85.9109 57.0213 86.5927 56.5952C87.2745 56.1643 88.0344 55.9489 88.8725 55.9489C89.5117 55.9489 90.0373 56.0578 90.4492 56.2756C90.8612 56.4886 91.1879 56.7467 91.4293 57.0497C91.6708 57.348 91.8578 57.6297 91.9904 57.8949H92.0969V52.4545H94.6751V67H92.1467V65.2812H91.9904C91.8578 65.5464 91.6661 65.8281 91.4151 66.1264C91.1642 66.42 90.8327 66.6709 90.4208 66.8793C90.0089 67.0876 89.4904 67.1918 88.8654 67.1918ZM89.5827 65.0824C90.1272 65.0824 90.5913 64.9356 90.9748 64.642C91.3583 64.3437 91.6495 63.9295 91.8484 63.3991C92.0472 62.8688 92.1467 62.2509 92.1467 61.5455C92.1467 60.84 92.0472 60.2268 91.8484 59.706C91.6542 59.1851 91.3654 58.7803 90.9819 58.4915C90.6031 58.2027 90.1367 58.0582 89.5827 58.0582C89.0098 58.0582 88.5316 58.2074 88.1481 58.5057C87.7646 58.804 87.4757 59.2159 87.2816 59.7415C87.0875 60.267 86.9904 60.8684 86.9904 61.5455C86.9904 62.2273 87.0875 62.8357 87.2816 63.3707C87.4805 63.901 87.7717 64.3201 88.1552 64.6278C88.5434 64.9309 89.0193 65.0824 89.5827 65.0824ZM101.85 54.6634V52.4545H113.455V54.6634H108.96V67H106.346V54.6634H101.85ZM114.446 67V56.0909H116.939V57.9091H117.053C117.251 57.2794 117.592 56.794 118.075 56.4531C118.563 56.1075 119.119 55.9347 119.744 55.9347C119.886 55.9347 120.045 55.9418 120.22 55.956C120.4 55.9654 120.549 55.982 120.668 56.0057V58.3707C120.559 58.3329 120.386 58.2997 120.149 58.2713C119.917 58.2382 119.692 58.2216 119.474 58.2216C119.006 58.2216 118.584 58.3234 118.21 58.527C117.841 58.7259 117.55 59.0028 117.337 59.358C117.124 59.7131 117.017 60.1226 117.017 60.5866V67H114.446ZM125.32 67.2202C124.628 67.2202 124.006 67.0971 123.452 66.8509C122.902 66.5999 122.467 66.2306 122.145 65.7429C121.828 65.2552 121.669 64.6539 121.669 63.9389C121.669 63.3234 121.783 62.8144 122.01 62.4119C122.237 62.0095 122.547 61.6875 122.94 61.446C123.333 61.2045 123.776 61.0223 124.268 60.8991C124.766 60.7713 125.279 60.679 125.81 60.6222C126.449 60.5559 126.967 60.4967 127.365 60.4446C127.763 60.3878 128.052 60.3026 128.232 60.1889C128.416 60.0705 128.509 59.8883 128.509 59.642V59.5994C128.509 59.0644 128.35 58.6501 128.033 58.3565C127.715 58.063 127.259 57.9162 126.662 57.9162C126.032 57.9162 125.533 58.0535 125.163 58.3281C124.799 58.6027 124.553 58.9271 124.425 59.3011L122.024 58.9602C122.214 58.2973 122.526 57.7434 122.962 57.2983C123.397 56.8485 123.93 56.5123 124.56 56.2898C125.189 56.0625 125.885 55.9489 126.648 55.9489C127.173 55.9489 127.696 56.0104 128.217 56.1335C128.738 56.2566 129.214 56.4602 129.645 56.7443C130.076 57.0237 130.421 57.4048 130.682 57.8878C130.947 58.3707 131.08 58.9744 131.08 59.6989V67H128.608V65.5014H128.523C128.366 65.8045 128.146 66.0885 127.862 66.3537C127.583 66.6141 127.23 66.8248 126.804 66.9858C126.383 67.142 125.888 67.2202 125.32 67.2202ZM125.987 65.331C126.503 65.331 126.951 65.2292 127.33 65.0256C127.708 64.8172 128 64.5426 128.203 64.2017C128.411 63.8608 128.516 63.4891 128.516 63.0866V61.8011C128.435 61.8674 128.298 61.929 128.104 61.9858C127.914 62.0426 127.701 62.0923 127.464 62.1349C127.228 62.1776 126.993 62.2154 126.761 62.2486C126.529 62.2817 126.328 62.3101 126.158 62.3338C125.774 62.3859 125.431 62.4711 125.128 62.5895C124.825 62.7079 124.586 62.8736 124.411 63.0866C124.235 63.295 124.148 63.5649 124.148 63.8963C124.148 64.3698 124.321 64.7273 124.666 64.9688C125.012 65.2102 125.452 65.331 125.987 65.331ZM143.018 56.0909L139.134 67H136.293L132.408 56.0909H135.149L137.656 64.1946H137.77L140.284 56.0909H143.018ZM149.256 67.2131C148.162 67.2131 147.218 66.9858 146.422 66.5312C145.632 66.072 145.023 65.4233 144.597 64.5852C144.171 63.7424 143.958 62.7505 143.958 61.6094C143.958 60.4872 144.171 59.5024 144.597 58.6548C145.028 57.8026 145.629 57.1397 146.401 56.6662C147.173 56.188 148.079 55.9489 149.121 55.9489C149.793 55.9489 150.428 56.0578 151.025 56.2756C151.626 56.4886 152.156 56.8201 152.615 57.2699C153.079 57.7197 153.444 58.2926 153.709 58.9886C153.974 59.6799 154.107 60.5038 154.107 61.4602V62.2486H145.165V60.5156H151.642C151.638 60.0232 151.531 59.5852 151.323 59.2017C151.114 58.8134 150.823 58.508 150.449 58.2855C150.08 58.063 149.649 57.9517 149.157 57.9517C148.631 57.9517 148.169 58.0795 147.772 58.3352C147.374 58.5862 147.064 58.9176 146.841 59.3295C146.623 59.7367 146.512 60.1842 146.507 60.6719V62.1847C146.507 62.8191 146.623 63.3636 146.855 63.8182C147.087 64.268 147.412 64.6136 147.828 64.8551C148.245 65.0919 148.733 65.2102 149.292 65.2102C149.666 65.2102 150.004 65.1581 150.307 65.054C150.61 64.9451 150.873 64.7865 151.096 64.5781C151.318 64.3698 151.486 64.1117 151.6 63.804L154 64.0739C153.849 64.7083 153.56 65.2623 153.134 65.7358C152.712 66.2045 152.173 66.5691 151.515 66.8295C150.856 67.0852 150.104 67.2131 149.256 67.2131ZM158.853 52.4545V67H156.282V52.4545H158.853ZM170.119 58.9744L167.775 59.2301C167.709 58.9934 167.593 58.7708 167.427 58.5625C167.266 58.3542 167.048 58.1861 166.774 58.0582C166.499 57.9304 166.163 57.8665 165.765 57.8665C165.23 57.8665 164.78 57.9825 164.416 58.2145C164.056 58.4465 163.878 58.7472 163.883 59.1165C163.878 59.4337 163.994 59.6918 164.231 59.8906C164.473 60.0895 164.87 60.2528 165.424 60.3807L167.285 60.7784C168.317 61.0009 169.084 61.3537 169.586 61.8366C170.093 62.3196 170.349 62.9517 170.353 63.733C170.349 64.4195 170.147 65.0256 169.75 65.5511C169.357 66.072 168.81 66.4792 168.109 66.7727C167.408 67.0663 166.603 67.2131 165.694 67.2131C164.359 67.2131 163.284 66.9337 162.47 66.375C161.655 65.8116 161.17 65.0279 161.014 64.0241L163.521 63.7827C163.635 64.2751 163.876 64.6468 164.245 64.8977C164.615 65.1487 165.095 65.2741 165.687 65.2741C166.298 65.2741 166.788 65.1487 167.157 64.8977C167.531 64.6468 167.718 64.3366 167.718 63.9673C167.718 63.6548 167.598 63.3968 167.356 63.1932C167.119 62.9896 166.75 62.8333 166.248 62.7244L164.387 62.3338C163.341 62.116 162.567 61.7491 162.065 61.233C161.563 60.7121 161.315 60.054 161.319 59.2585C161.315 58.5862 161.497 58.0038 161.866 57.5114C162.24 57.0142 162.759 56.6307 163.422 56.3608C164.089 56.0862 164.859 55.9489 165.73 55.9489C167.008 55.9489 168.014 56.2211 168.748 56.7656C169.487 57.3101 169.944 58.0464 170.119 58.9744Z" fill="#9D005B"/>
</svg>
