<svg width="200" height="61" viewBox="0 0 200 61" fill="none" xmlns="http://www.w3.org/2000/svg">
<path d="M1.73086 48.25V17.5264H13.8523C16.1725 17.5264 18.1528 17.9415 19.793 18.7716C21.4431 19.5917 22.6983 20.7568 23.5584 22.267C24.4285 23.7672 24.8635 25.5324 24.8635 27.5626C24.8635 29.6028 24.4235 31.358 23.5434 32.8282C22.6633 34.2884 21.3881 35.4085 19.7179 36.1886C18.0577 36.9687 16.0475 37.3587 13.6872 37.3587H5.5713V32.1381H12.6371C13.8773 32.1381 14.9074 31.9681 15.7275 31.6281C16.5476 31.288 17.1576 30.778 17.5577 30.0979C17.9677 29.4178 18.1728 28.5727 18.1728 27.5626C18.1728 26.5425 17.9677 25.6824 17.5577 24.9823C17.1576 24.2822 16.5426 23.7522 15.7125 23.3921C14.8924 23.0221 13.8573 22.8371 12.6071 22.8371H8.22661V48.25H1.73086ZM18.3228 34.2684L25.9587 48.25H18.7878L11.317 34.2684H18.3228ZM57.6873 32.8882C57.6873 36.2386 57.0523 39.0889 55.7821 41.4392C54.522 43.7895 52.8018 45.5847 50.6215 46.8248C48.4513 48.055 46.011 48.67 43.3007 48.67C40.5704 48.67 38.1201 48.05 35.9498 46.8098C33.7796 45.5697 32.0644 43.7745 30.8042 41.4242C29.5441 39.0739 28.914 36.2286 28.914 32.8882C28.914 29.5378 29.5441 26.6875 30.8042 24.3372C32.0644 21.987 33.7796 20.1967 35.9498 18.9666C38.1201 17.7265 40.5704 17.1064 43.3007 17.1064C46.011 17.1064 48.4513 17.7265 50.6215 18.9666C52.8018 20.1967 54.522 21.987 55.7821 24.3372C57.0523 26.6875 57.6873 29.5378 57.6873 32.8882ZM51.1016 32.8882C51.1016 30.718 50.7765 28.8878 50.1265 27.3976C49.4864 25.9074 48.5813 24.7773 47.4112 24.0072C46.241 23.2371 44.8709 22.8521 43.3007 22.8521C41.7305 22.8521 40.3603 23.2371 39.1902 24.0072C38.0201 24.7773 37.11 25.9074 36.4599 27.3976C35.8198 28.8878 35.4998 30.718 35.4998 32.8882C35.4998 35.0585 35.8198 36.8887 36.4599 38.3789C37.11 39.869 38.0201 40.9992 39.1902 41.7692C40.3603 42.5393 41.7305 42.9244 43.3007 42.9244C44.8709 42.9244 46.241 42.5393 47.4112 41.7692C48.5813 40.9992 49.4864 39.869 50.1265 38.3789C50.7765 36.8887 51.1016 35.0585 51.1016 32.8882ZM79.1661 26.3625C79.0461 25.1523 78.531 24.2122 77.6209 23.5421C76.7108 22.8721 75.4757 22.537 73.9155 22.537C72.8553 22.537 71.9602 22.687 71.2302 22.9871C70.5001 23.2771 69.94 23.6822 69.55 24.2022C69.1699 24.7223 68.9799 25.3123 68.9799 25.9724C68.9599 26.5225 69.0749 27.0025 69.3249 27.4126C69.585 27.8226 69.94 28.1777 70.3901 28.4777C70.8401 28.7677 71.3602 29.0228 71.9502 29.2428C72.5403 29.4528 73.1704 29.6328 73.8405 29.7829L76.6008 30.4429C77.9409 30.743 79.1711 31.143 80.2912 31.6431C81.4113 32.1431 82.3815 32.7582 83.2015 33.4883C84.0216 34.2184 84.6567 35.0785 85.1068 36.0686C85.5668 37.0587 85.8018 38.1938 85.8118 39.474C85.8018 41.3542 85.3218 42.9844 84.3717 44.3645C83.4316 45.7347 82.0714 46.7998 80.2912 47.5599C78.521 48.31 76.3858 48.6851 73.8855 48.6851C71.4052 48.6851 69.2449 48.305 67.4047 47.5449C65.5745 46.7848 64.1443 45.6597 63.1142 44.1695C62.0941 42.6694 61.559 40.8141 61.509 38.6039H67.7948C67.8648 39.634 68.1598 40.4941 68.6799 41.1842C69.2099 41.8643 69.915 42.3793 70.7951 42.7294C71.6852 43.0694 72.6903 43.2394 73.8105 43.2394C74.9106 43.2394 75.8657 43.0794 76.6758 42.7594C77.4959 42.4393 78.131 41.9943 78.581 41.4242C79.0311 40.8541 79.2561 40.1991 79.2561 39.459C79.2561 38.7689 79.0511 38.1888 78.641 37.7188C78.241 37.2487 77.6509 36.8487 76.8708 36.5186C76.1007 36.1886 75.1556 35.8886 74.0355 35.6185L70.6901 34.7784C68.0998 34.1484 66.0546 33.1633 64.5544 31.8231C63.0542 30.4829 62.3091 28.6777 62.3191 26.4075C62.3091 24.5473 62.8042 22.9221 63.8043 21.5319C64.8144 20.1417 66.1996 19.0566 67.9598 18.2765C69.72 17.4964 71.7202 17.1064 73.9605 17.1064C76.2407 17.1064 78.231 17.4964 79.9312 18.2765C81.6414 19.0566 82.9715 20.1417 83.9216 21.5319C84.8717 22.9221 85.3618 24.5323 85.3918 26.3625H79.1661ZM89.011 22.8821V17.5264H114.244V22.8821H104.838V48.25H98.4171V22.8821H89.011Z" fill="#111111"/>
<path d="M199.939 30.4999L138.156 56.5469V4.45283L199.939 30.4999Z" fill="#111111"/>
<path d="M133.904 16.665L166.961 30.5001L133.904 44.3351V16.665Z" fill="#F8E643" stroke="black"/>
</svg>
